<?xml version="1.0" standalone="no"?>
<!DOCTYPE svg PUBLIC "-//W3C//DTD SVG 1.1//EN" "http://www.w3.org/Graphics/SVG/1.1/DTD/svg11.dtd" >
<svg xmlns="http://www.w3.org/2000/svg">
<defs>
  <font id="wtc" horiz-adv-x="256">
    <font-face font-family="wtc"
      units-per-em="256" ascent="256"
      descent="0" />
    <missing-glyph horiz-adv-x="0" />
    <glyph glyph-name="zoom-out"
      unicode="&#xEA02;"
      horiz-adv-x="256" d="M80 145.0666666666667A5.333333333333333 5.333333333333333 0 0 0 85.3333333333333 150.4H136.5333333333333A5.333333333333333 5.333333333333333 0 0 0 136.5333333333333 139.7333333333333H85.3333333333333A5.333333333333333 5.333333333333333 0 0 0 80 145.0666666666667zM155.424 100.576A5.333333333333333 5.333333333333333 0 0 0 162.9653333333333 100.576L217.1093333333333 46.4426666666667A5.333333333333333 5.333333333333333 0 0 0 209.568 38.8906666666667L155.424 93.0346666666667A5.333333333333333 5.333333333333333 0 0 0 155.424 100.576zM110.9333333333333 208A62.93333333333334 62.93333333333334 0 1 1 110.9333333333333 82.1333333333333A62.93333333333334 62.93333333333334 0 0 1 110.9333333333333 208zM37.3333333333333 145.0666666666667A73.60000000000001 73.60000000000001 0 1 0 184.5333333333333 145.0666666666667A73.60000000000001 73.60000000000001 0 0 0 37.3333333333333 145.0666666666667z" />
    <glyph glyph-name="bar-graph"
      unicode="&#xEA03;"
      horiz-adv-x="256" d="M107.1573333333333 198.2933333333334A5.333333333333333 5.333333333333333 0 0 0 112.4906666666667 203.6266666666667H143.52A5.333333333333333 5.333333333333333 0 0 0 148.8533333333333 198.2933333333334V58.6666666666667A5.333333333333333 5.333333333333333 0 0 0 143.52 53.3333333333333H112.48A5.333333333333333 5.333333333333333 0 0 0 107.1466666666667 58.6666666666667V198.2933333333334zM117.824 192.96V64H138.1866666666667V192.96H117.8133333333333zM37.3333333333333 112.96A5.333333333333333 5.333333333333333 0 0 0 42.6666666666667 118.2933333333334H73.7066666666667A5.333333333333333 5.333333333333333 0 0 0 79.04 112.96V58.6666666666667A5.333333333333333 5.333333333333333 0 0 0 73.7066666666667 53.3333333333333H42.6666666666667A5.333333333333333 5.333333333333333 0 0 0 37.3333333333333 58.6666666666667V112.96zM48 107.6266666666667V64H68.3733333333333V107.6266666666667H48zM176.96 151.7546666666667A5.333333333333333 5.333333333333333 0 0 0 182.2933333333333 157.088H213.3333333333333A5.333333333333333 5.333333333333333 0 0 0 218.6666666666667 151.7546666666667V58.6666666666667A5.333333333333333 5.333333333333333 0 0 0 213.3333333333333 53.3333333333333H182.2933333333333A5.333333333333333 5.333333333333333 0 0 0 176.96 58.6666666666667V151.7546666666667zM187.6266666666666 146.4213333333333V64H208V146.4213333333333H187.6266666666666z" />
    <glyph glyph-name="audit-log"
      unicode="&#xEA04;"
      horiz-adv-x="256" d="M128 179.9146666666667A5.333333333333333 5.333333333333333 0 0 0 133.3333333333334 174.5813333333334V133.376H174.5493333333333A5.333333333333333 5.333333333333333 0 1 0 174.5493333333333 122.7093333333334H128A5.333333333333333 5.333333333333333 0 0 0 122.6666666666667 128.0426666666667V174.5813333333333A5.333333333333333 5.333333333333333 0 0 0 128 179.9146666666667zM48.7786666666667 92.7253333333333A5.333333333333333 5.333333333333333 0 0 0 53.6853333333333 93.824L97.8453333333333 81.5146666666667A5.333333333333333 5.333333333333333 0 0 0 94.9866666666667 71.2426666666667L58.56 81.3973333333333L63.2106666666667 44.384A5.333333333333333 5.333333333333333 0 1 0 52.6293333333333 43.0506666666667L46.976 88.0213333333333A5.333333333333333 5.333333333333333 0 0 0 48.7786666666667 92.7146666666667zM117.2053333333333 218.0266666666667A90.66666666666666 90.66666666666666 0 1 0 47.5306666666667 86.2293333333334A5.333333333333333 5.333333333333333 0 1 0 56.992 91.136A80 80 0 1 1 48 128.0426666666667A5.333333333333333 5.333333333333333 0 0 0 37.3333333333333 128.0426666666667A90.66666666666666 90.66666666666666 0 0 0 117.2053333333333 218.0266666666667z" />
    <glyph glyph-name="zoom-in"
      unicode="&#xEA05;"
      horiz-adv-x="256" d="M110.9333333333333 176A5.333333333333333 5.333333333333333 0 0 0 116.2666666666667 170.6666666666667V119.4666666666667A5.333333333333333 5.333333333333333 0 1 0 105.6 119.4666666666667V170.6666666666667A5.333333333333333 5.333333333333333 0 0 0 110.9333333333333 176zM80 145.0666666666667A5.333333333333333 5.333333333333333 0 0 0 85.3333333333333 150.4H136.5333333333333A5.333333333333333 5.333333333333333 0 0 0 136.5333333333333 139.7333333333333H85.3333333333333A5.333333333333333 5.333333333333333 0 0 0 80 145.0666666666667zM155.424 100.576A5.333333333333333 5.333333333333333 0 0 0 162.9653333333333 100.576L217.1093333333333 46.4426666666667A5.333333333333333 5.333333333333333 0 0 0 209.568 38.8906666666667L155.424 93.0346666666667A5.333333333333333 5.333333333333333 0 0 0 155.424 100.576zM110.9333333333333 208A62.93333333333334 62.93333333333334 0 1 1 110.9333333333333 82.1333333333333A62.93333333333334 62.93333333333334 0 0 1 110.9333333333333 208zM37.3333333333333 145.0666666666667A73.60000000000001 73.60000000000001 0 1 0 184.5333333333333 145.0666666666667A73.60000000000001 73.60000000000001 0 0 0 37.3333333333333 145.0666666666667z" />
    <glyph glyph-name="user"
      unicode="&#xEA06;"
      horiz-adv-x="256" d="M141.92 105.4933333333333A5.013333333333333 5.013333333333333 0 0 0 148.768 107.36L170.56 94.8586666666667A26.933333333333334 26.933333333333334 0 0 0 184.128 71.4773333333334V66.0373333333334A5.013333333333333 5.013333333333333 0 0 0 174.0906666666667 66.0373333333334V71.4773333333334C174.0906666666667 77.536 170.8373333333334 83.136 165.5786666666667 86.1333333333334L143.776 98.6453333333334A5.013333333333333 5.013333333333333 0 0 0 141.92 105.504zM114.08 105.4933333333333A5.013333333333333 5.013333333333333 0 0 0 112.224 98.6453333333333L90.432 86.144A16.906666666666666 16.906666666666666 0 0 1 81.9093333333333 71.4773333333334V66.0373333333334A5.013333333333333 5.013333333333333 0 1 0 71.872 66.0373333333334V71.4773333333334C71.872 81.1413333333333 77.0453333333333 90.0586666666667 85.44 94.8586666666667L107.232 107.36A5.013333333333333 5.013333333333333 0 0 0 114.08 105.504zM128 166.784A24.192 24.192 0 0 1 103.8186666666667 142.6026666666667V128C103.8186666666667 121.2373333333334 106.592 114.1546666666667 111.1786666666667 108.7786666666667C115.744 103.4133333333333 121.7386666666667 100.16 128 100.16S140.2666666666667 103.4133333333333 144.832 108.7786666666667C149.4186666666667 114.1546666666667 152.192 121.2373333333333 152.192 128V142.6026666666667A24.181333333333328 24.181333333333328 0 0 1 128 166.784zM93.7706666666667 142.6133333333334A34.22933333333334 34.22933333333334 0 0 0 162.2293333333333 142.6133333333334V128C162.2293333333333 118.6346666666667 158.464 109.2906666666667 152.4693333333334 102.272C146.4746666666667 95.232 137.8666666666667 90.1226666666667 128 90.1226666666667S109.5253333333333 95.2426666666667 103.5306666666667 102.272C97.536 109.2906666666667 93.7706666666667 118.6346666666667 93.7706666666667 128V142.6026666666667zM128 203.296A75.296 75.296 0 1 1 128 52.704A75.296 75.296 0 0 1 128 203.3066666666667zM42.6666666666667 128A85.33333333333333 85.33333333333333 0 1 0 213.3333333333333 128A85.33333333333333 85.33333333333333 0 0 0 42.6666666666667 128z" />
    <glyph glyph-name="wifi-on"
      unicode="&#xEA07;"
      horiz-adv-x="256" d="M128 87.808A11.904000000000005 11.904000000000005 0 1 1 128 64A11.904000000000005 11.904000000000005 0 0 1 128 87.808zM105.4293333333333 75.904A22.570666666666664 22.570666666666664 0 1 0 150.5706666666667 75.904A22.570666666666664 22.570666666666664 0 0 0 105.4293333333334 75.904zM75.232 128.9386666666667C89.0453333333333 141.824 107.552 150.1866666666667 128 150.1866666666667C148.448 150.1866666666667 166.9546666666667 141.8133333333333 180.768 128.928A5.333333333333333 5.333333333333333 0 1 0 173.4933333333334 121.1306666666667C161.44 132.3733333333333 145.472 139.52 128 139.52S94.5493333333333 132.3733333333333 82.5066666666667 121.1306666666667A5.333333333333333 5.333333333333333 0 0 0 75.232 128.9173333333334zM38.8906666666667 165.0133333333334A125.81333333333336 125.81333333333336 0 0 0 128 201.92C163.0933333333333 201.92 194.6026666666667 187.5093333333333 217.1093333333333 165.0133333333333A5.333333333333333 5.333333333333333 0 0 0 209.5573333333333 157.472A115.14666666666666 115.14666666666666 0 0 1 128 191.2426666666667A115.14666666666666 115.14666666666666 0 0 1 46.4426666666667 157.472A5.333333333333333 5.333333333333333 0 1 0 38.8906666666667 165.0133333333333z" />
    <glyph glyph-name="wifi-off"
      unicode="&#xEA08;"
      horiz-adv-x="256" d="M131.712 93.408A5.333333333333333 5.333333333333333 0 0 0 138.9973333333333 95.3493333333334A22.517333333333333 22.517333333333333 0 1 0 108.192 64.6293333333334A5.333333333333333 5.333333333333333 0 1 0 117.44 69.952A11.840000000000002 11.840000000000002 0 1 1 133.6533333333333 86.1226666666667A5.333333333333333 5.333333333333333 0 0 0 131.712 93.4080000000001zM75.3493333333333 128.2346666666667A73.85600000000001 73.85600000000001 0 0 0 127.7226666666667 149.9306666666667C148.1813333333333 149.9306666666667 166.6986666666667 141.632 180.096 128.2346666666667A5.333333333333333 5.333333333333333 0 1 0 172.5653333333334 120.6933333333333A63.18933333333333 63.18933333333333 0 0 1 127.7226666666667 139.2533333333333A63.18933333333333 63.18933333333333 0 0 1 82.8906666666667 120.6933333333333A5.333333333333333 5.333333333333333 0 1 0 75.3493333333334 128.2346666666667zM38.8906666666667 164.6826666666667A125.22666666666667 125.22666666666667 0 0 0 127.7226666666667 201.4826666666667A125.22666666666667 125.22666666666667 0 0 0 216.5546666666667 164.6826666666667A5.333333333333333 5.333333333333333 0 0 0 209.0133333333333 157.1413333333334A114.55999999999999 114.55999999999999 0 0 1 127.7333333333333 190.816A114.55999999999999 114.55999999999999 0 0 1 46.4426666666667 157.1413333333334A5.333333333333333 5.333333333333333 0 1 0 38.8906666666667 164.6826666666667zM217.4186666666667 217.1093333333333A5.333333333333333 5.333333333333333 0 0 0 217.4186666666667 209.5573333333333L62.752 54.8906666666667A5.333333333333333 5.333333333333333 0 0 0 55.2106666666667 62.4426666666667L209.8773333333333 217.1093333333333A5.333333333333333 5.333333333333333 0 0 0 217.4186666666667 217.1093333333333z" />
    <glyph glyph-name="exclamation"
      unicode="&#xEA09;"
      horiz-adv-x="256" d="M128 74.6666666666667A10.666666666666666 10.666666666666666 0 1 1 128 96A10.666666666666666 10.666666666666666 0 0 1 128 74.6666666666667zM128 170.6666666666667A5.333333333333333 5.333333333333333 0 0 1 122.6666666666667 165.3333333333334V112A5.333333333333333 5.333333333333333 0 1 1 133.3333333333334 112V165.3333333333333A5.333333333333333 5.333333333333333 0 0 1 128 170.6666666666667zM128 201.6746666666667A7.146666666666667 7.146666666666667 0 0 1 121.7066666666667 197.92L55.264 74.528A7.146666666666667 7.146666666666667 0 0 1 61.5573333333333 64H194.4533333333333A7.146666666666667 7.146666666666667 0 0 1 200.7466666666667 74.528L134.2933333333333 197.92A7.146666666666667 7.146666666666667 0 0 1 128 201.6746666666667zM45.8666666666667 79.584L112.32 202.976A17.813333333333333 17.813333333333333 0 0 0 143.68 202.976L210.1333333333333 79.584A17.813333333333333 17.813333333333333 0 0 0 194.432 53.3333333333333H61.5573333333333A17.834666666666664 17.834666666666664 0 0 0 45.8773333333333 79.5733333333334z" />
    <glyph glyph-name="plus"
      unicode="&#xEA0A;"
      horiz-adv-x="256" d="M128 169.5253333333334C130.7733333333334 169.5253333333334 133.0133333333333 167.2853333333334 133.0133333333333 164.512V91.4986666666667A5.013333333333333 5.013333333333333 0 0 0 122.9866666666667 91.4986666666667V164.5013333333334C122.9866666666667 167.2746666666667 125.2266666666667 169.5253333333334 128 169.5253333333334zM86.4746666666667 128C86.4746666666667 130.7733333333334 88.7146666666667 133.0133333333333 91.488 133.0133333333333H164.5013333333333A5.013333333333333 5.013333333333333 0 0 0 164.5013333333333 122.9866666666667H91.4986666666667A5.013333333333333 5.013333333333333 0 0 0 86.4746666666667 128zM128 203.296A75.296 75.296 0 1 1 128 52.704A75.296 75.296 0 0 1 128 203.3066666666667zM42.6666666666667 128A85.33333333333333 85.33333333333333 0 1 0 213.3333333333333 128A85.33333333333333 85.33333333333333 0 0 0 42.6666666666667 128z" />
    <glyph glyph-name="utility-menu"
      unicode="&#xEA0B;"
      horiz-adv-x="256" d="M104.7253333333333 213.3333333333334H50.432A7.754666666666665 7.754666666666665 0 0 1 42.6666666666667 205.5786666666667V151.2746666666667C42.6666666666667 146.9866666666667 46.144 143.5093333333333 50.4213333333333 143.5093333333333H104.7253333333333A7.754666666666665 7.754666666666665 0 0 1 112.4906666666667 151.2746666666667V205.568A7.754666666666665 7.754666666666665 0 0 1 104.7253333333333 213.3333333333334zM205.5786666666667 213.3333333333334H151.2746666666667A7.754666666666665 7.754666666666665 0 0 1 143.5093333333333 205.5786666666667V151.2746666666667C143.5093333333333 146.9866666666667 146.9866666666667 143.5093333333333 151.2746666666667 143.5093333333333H205.568A7.754666666666665 7.754666666666665 0 0 1 213.3333333333333 151.2746666666667V205.568A7.754666666666665 7.754666666666665 0 0 1 205.5786666666667 213.3333333333334zM104.7253333333333 112.4906666666667H50.432A7.754666666666665 7.754666666666665 0 0 1 42.6666666666667 104.7253333333333V50.432C42.6666666666667 46.144 46.144 42.6666666666667 50.4213333333333 42.6666666666667H104.7253333333333A7.754666666666665 7.754666666666665 0 0 1 112.4906666666667 50.4213333333334V104.7253333333334A7.754666666666665 7.754666666666665 0 0 1 104.7253333333333 112.4906666666667zM205.5786666666667 112.4906666666667H151.2746666666667A7.754666666666665 7.754666666666665 0 0 1 143.5093333333333 104.7253333333333V50.432C143.5093333333333 46.144 146.9866666666667 42.6666666666667 151.2746666666667 42.6666666666667H205.568A7.754666666666665 7.754666666666665 0 0 1 213.3333333333333 50.4213333333334V104.7253333333334A7.754666666666665 7.754666666666665 0 0 1 205.5786666666666 112.4906666666667z" />
    <glyph glyph-name="down"
      unicode="&#xEA0C;"
      horiz-adv-x="256" d="M128 192C129.632 192 130.9653333333333 190.0053333333334 130.9653333333333 187.552V89.7813333333334C130.9653333333333 87.328 129.632 85.3333333333333 128 85.3333333333333C126.368 85.3333333333333 125.0346666666667 87.328 125.0346666666667 89.7813333333334V187.552C125.0346666666667 190.0053333333334 126.368 192 128 192zM102.1653333333333 127.0826666666667C103.296 128.8533333333334 105.1733333333333 128.896 106.3466666666667 127.2L128 95.9466666666667L149.6533333333333 127.2C150.8266666666667 128.9066666666667 152.704 128.8533333333334 153.8346666666666 127.0826666666667A6.122666666666667 6.122666666666667 0 0 0 153.76 120.7893333333334L130.0586666666666 86.5813333333334C128.9066666666667 84.9173333333334 127.0933333333333 84.9173333333334 125.9413333333333 86.5813333333334L102.24 120.8A6.122666666666667 6.122666666666667 0 0 0 102.1653333333333 127.0826666666667z" />
    <glyph glyph-name="browser"
      unicode="&#xEA0D;"
      horiz-adv-x="256" d="M128 148.8426666666667A5.333333333333333 5.333333333333333 0 0 0 133.3333333333334 143.5093333333334V42.6666666666667A5.333333333333333 5.333333333333333 0 1 0 122.6666666666667 42.6666666666667V143.5093333333334A5.333333333333333 5.333333333333333 0 0 0 128 148.8426666666667zM124.224 147.2853333333334A5.333333333333333 5.333333333333333 0 0 0 131.776 147.2853333333334L162.8053333333334 116.256A5.333333333333333 5.333333333333333 0 0 0 155.264 108.7146666666667L128 135.968L100.736 108.7146666666667A5.333333333333333 5.333333333333333 0 1 0 93.1946666666667 116.256L124.2346666666667 147.296zM58.1866666666667 208A10.186666666666667 10.186666666666667 0 0 1 48 197.8133333333333V104.7253333333333A10.186666666666667 10.186666666666667 0 0 1 58.1866666666667 94.5493333333334H65.9413333333333A5.333333333333333 5.333333333333333 0 1 0 65.9413333333333 83.8826666666667H58.1866666666667A20.853333333333335 20.853333333333335 0 0 0 37.3333333333333 104.7253333333333V197.8133333333333A20.853333333333335 20.853333333333335 0 0 0 58.1866666666667 218.6666666666667H197.8133333333333A20.842666666666666 20.842666666666666 0 0 0 218.6666666666667 197.8133333333333V104.7253333333333A20.842666666666666 20.842666666666666 0 0 0 197.824 83.8826666666667H190.0586666666667A5.333333333333333 5.333333333333333 0 1 0 190.0586666666667 94.5493333333333H197.8133333333333A10.186666666666667 10.186666666666667 0 0 1 208 104.7253333333333V197.8133333333333A10.186666666666667 10.186666666666667 0 0 1 197.824 208H58.1866666666667zM37.3333333333333 182.2933333333334A5.333333333333333 5.333333333333333 0 0 0 42.6666666666667 187.6266666666667H213.3333333333333A5.333333333333333 5.333333333333333 0 0 0 213.3333333333333 176.96H42.6666666666667A5.333333333333333 5.333333333333333 0 0 0 37.3333333333333 182.2933333333333z" />
    <glyph glyph-name="delete"
      unicode="&#xEA0E;"
      horiz-adv-x="256" d="M65.9413333333333 156.608A5.333333333333333 5.333333333333333 0 0 0 71.2746666666667 151.2746666666667V58.176A10.176 10.176 0 0 1 81.4506666666667 48H174.5493333333333A10.186666666666667 10.186666666666667 0 0 1 184.7253333333333 58.176V151.2746666666667A5.333333333333333 5.333333333333333 0 0 0 195.392 151.2746666666667V58.176A20.853333333333335 20.853333333333335 0 0 0 174.5493333333333 37.3333333333333H81.4506666666667A20.842666666666666 20.842666666666666 0 0 0 60.608 58.176V151.2746666666667A5.333333333333333 5.333333333333333 0 0 0 65.9413333333333 156.608zM37.3333333333333 182.2933333333334A5.333333333333333 5.333333333333333 0 0 0 42.6666666666667 187.6266666666667H213.3333333333333A5.333333333333333 5.333333333333333 0 0 0 213.3333333333333 176.96H42.6666666666667A5.333333333333333 5.333333333333333 0 0 0 37.3333333333333 182.2933333333333zM128 133.3333333333334A5.333333333333333 5.333333333333333 0 0 0 133.3333333333334 128V81.4506666666667A5.333333333333333 5.333333333333333 0 1 0 122.6666666666667 81.4506666666667V128A5.333333333333333 5.333333333333333 0 0 0 128 133.3333333333333zM96.96 133.3333333333334A5.333333333333333 5.333333333333333 0 0 0 102.2933333333333 128V81.4506666666667A5.333333333333333 5.333333333333333 0 1 0 91.6266666666667 81.4506666666667V128A5.333333333333333 5.333333333333333 0 0 0 96.96 133.3333333333333zM159.04 133.3333333333334A5.333333333333333 5.333333333333333 0 0 0 164.3733333333333 128V81.4506666666667A5.333333333333333 5.333333333333333 0 1 0 153.7066666666667 81.4506666666667V128A5.333333333333333 5.333333333333333 0 0 0 159.04 133.3333333333333zM91.6266666666667 213.3333333333334A5.333333333333333 5.333333333333333 0 0 0 96.96 218.6666666666667H159.04A5.333333333333333 5.333333333333333 0 0 0 164.3733333333333 213.3333333333334V182.2933333333334A5.333333333333333 5.333333333333333 0 1 0 153.7066666666667 182.2933333333334V208H102.2933333333333V182.2933333333334A5.333333333333333 5.333333333333333 0 0 0 91.6266666666667 182.2933333333334V213.3333333333334z" />
    <glyph glyph-name="up"
      unicode="&#xEA0F;"
      horiz-adv-x="256" d="M128 186.6666666666667C129.8453333333334 186.6666666666667 131.3386666666667 184.4906666666667 131.3386666666667 181.8133333333333V84.8533333333334C131.3386666666667 82.1653333333334 129.8453333333333 80 128 80S124.6613333333333 82.1653333333334 124.6613333333333 84.8426666666667V181.8133333333333C124.6613333333333 184.4906666666667 126.1546666666667 186.6666666666667 128 186.6666666666667zM125.6426666666667 185.248C126.944 187.136 129.056 187.136 130.3573333333333 185.248L153.696 151.3066666666667A6.506666666666667 6.506666666666667 0 0 0 153.696 144.448C152.384 142.56 150.2826666666667 142.56 148.9706666666666 144.448L128 174.9546666666667L107.0293333333333 144.448C105.7173333333333 142.56 103.616 142.56 102.3146666666667 144.448A6.506666666666667 6.506666666666667 0 0 0 102.3146666666667 151.3066666666667L125.6426666666667 185.248z" />
    <glyph glyph-name="success"
      unicode="&#xEA10;"
      horiz-adv-x="256" d="M217.1093333333333 185.1093333333333A5.333333333333333 5.333333333333333 0 0 0 217.1093333333333 177.5573333333333L106.176 66.624A5.333333333333333 5.333333333333333 0 0 0 98.624 66.624L38.8906666666667 126.3573333333333A5.333333333333333 5.333333333333333 0 0 0 46.4426666666667 133.9093333333333L102.4 77.9413333333333L209.5573333333333 185.1093333333333A5.333333333333333 5.333333333333333 0 0 0 217.1093333333333 185.1093333333333z" />
    <glyph glyph-name="show"
      unicode="&#xEA11;"
      horiz-adv-x="256" d="M49.888 136.672A10.495999999999999 10.495999999999999 0 0 1 49.888 124.6613333333334C55.7546666666667 116.352 65.856 103.744 79.1893333333333 93.2586666666667C92.5333333333333 82.752 108.7573333333333 74.6666666666667 126.9973333333333 74.6666666666667C145.2373333333334 74.6666666666667 161.4506666666667 82.752 174.8053333333333 93.2586666666667C188.1386666666667 103.744 198.24 116.352 204.1066666666667 124.6613333333334A10.495999999999999 10.495999999999999 0 0 1 204.1066666666667 136.672C198.24 144.9813333333334 188.1386666666667 157.5893333333334 174.8053333333333 168.0746666666667C161.4613333333333 178.5813333333333 145.2373333333333 186.6666666666667 126.9973333333333 186.6666666666667C108.7573333333333 186.6666666666667 92.544 178.5813333333333 79.1893333333333 168.0746666666667C65.856 157.5893333333334 55.7546666666667 144.9813333333334 49.888 136.672zM72.5866666666667 176.4586666666667C87.04 187.8186666666667 105.5146666666667 197.3333333333334 126.9973333333333 197.3333333333334S166.9653333333333 187.8186666666667 181.3973333333333 176.4586666666667C195.8506666666667 165.0986666666667 206.6346666666667 151.584 212.832 142.816V142.7946666666667A21.162666666666663 21.162666666666663 0 0 0 212.832 118.5386666666667V118.5173333333334C206.6453333333333 109.7493333333333 195.8613333333333 96.2346666666667 181.408 84.8746666666667C166.9653333333333 73.5146666666667 148.48 64 126.9973333333333 64S87.0293333333333 73.5146666666667 72.5973333333333 84.8746666666667C58.1333333333333 96.2346666666667 47.36 109.7493333333333 41.152 118.5066666666667V118.528A21.162666666666663 21.162666666666663 0 0 0 41.152 142.784V142.8053333333333C47.3386666666667 151.5733333333333 58.1333333333333 165.088 72.576 176.448zM126.9973333333333 156A25.333333333333336 25.333333333333336 0 1 1 126.9973333333333 105.3333333333333A25.333333333333336 25.333333333333336 0 0 1 126.9973333333333 156zM90.9973333333333 130.6666666666667A36 36 0 1 0 162.9973333333333 130.6666666666667A36 36 0 0 0 90.9973333333333 130.6666666666667z" />
    <glyph glyph-name="settings"
      unicode="&#xEA12;"
      horiz-adv-x="256" d="M124.32 145.9413333333334A17.941333333333333 17.941333333333333 0 1 1 124.32 110.0586666666667A17.941333333333333 17.941333333333333 0 0 1 124.32 145.9413333333334zM95.7226666666667 128A28.608 28.608 0 1 0 152.928 128A28.608 28.608 0 0 0 95.7226666666667 128zM103.52 213.9946666666667A5.333333333333333 5.333333333333333 0 0 0 108.8 218.6666666666667H139.8293333333333A5.333333333333333 5.333333333333333 0 0 0 145.12 213.9946666666667L147.9786666666667 191.0933333333334C154.912 188.48 161.3546666666667 184.736 167.072 180.0213333333334L188.384 189.0133333333334A5.333333333333333 5.333333333333333 0 0 0 195.072 186.7733333333334L210.592 159.8933333333334A5.333333333333333 5.333333333333333 0 0 0 209.184 152.9813333333334L190.784 139.04C191.392 135.4026666666667 191.7013333333334 131.712 191.712 128.0106666666667L186.3786666666667 128L191.712 127.9893333333334C191.7013333333334 124.288 191.392 120.5973333333334 190.784 116.96L209.184 103.0186666666667A5.333333333333333 5.333333333333333 0 0 0 210.592 96.1066666666667L195.072 69.2266666666667A5.333333333333333 5.333333333333333 0 0 0 188.384 66.9866666666667L167.0613333333334 75.9786666666666A67.296 67.296 0 0 0 147.9786666666667 64.9066666666666L145.12 42.0053333333333A5.333333333333333 5.333333333333333 0 0 0 139.8293333333334 37.3333333333333H108.8A5.333333333333333 5.333333333333333 0 0 0 103.52 42.0053333333333L100.6506666666667 64.9066666666666A67.28533333333333 67.28533333333333 0 0 0 81.5786666666667 75.9786666666666L60.2453333333333 66.9866666666667A5.333333333333333 5.333333333333333 0 0 0 53.568 69.2266666666667L38.048 96.1066666666667A5.333333333333333 5.333333333333333 0 0 0 39.4453333333333 103.0186666666667L57.856 116.96A66.61333333333333 66.61333333333333 0 0 0 57.856 139.04L39.4453333333333 152.9813333333334A5.333333333333333 5.333333333333333 0 0 0 38.048 159.8933333333334L53.568 186.7733333333334A5.333333333333333 5.333333333333333 0 0 0 60.256 189.0133333333333L81.5786666666667 180.0213333333333A67.28533333333333 67.28533333333333 0 0 0 100.6506666666667 191.0933333333333L103.52 213.9946666666667zM181.056 128C181.0453333333333 132.0853333333333 180.5973333333333 136.1493333333334 179.712 140.1386666666667A5.333333333333333 5.333333333333333 0 0 0 181.7066666666667 145.536L199.008 158.6453333333333L188.2026666666667 177.3546666666667L168.1493333333333 168.9066666666667A5.333333333333333 5.333333333333333 0 0 0 162.4746666666667 169.888A56.618666666666655 56.618666666666655 0 0 1 141.4826666666667 182.0693333333333A5.333333333333333 5.333333333333333 0 0 0 137.824 186.4853333333333L135.136 208H113.5146666666667L110.8266666666667 186.4853333333333A5.333333333333333 5.333333333333333 0 0 0 107.1573333333333 182.0693333333333A56.629333333333335 56.629333333333335 0 0 1 86.1653333333333 169.888A5.333333333333333 5.333333333333333 0 0 0 80.4906666666667 168.9066666666667L60.4373333333333 177.3546666666667L49.6426666666667 158.6453333333333L66.944 145.536A5.333333333333333 5.333333333333333 0 0 0 68.928 140.128A55.94666666666666 55.94666666666666 0 0 1 68.928 115.872A5.333333333333333 5.333333333333333 0 0 0 66.944 110.464L49.6426666666667 97.3546666666667L60.448 78.6453333333334L80.5013333333334 87.0933333333334A5.333333333333333 5.333333333333333 0 0 0 86.1653333333334 86.1120000000001A56.618666666666655 56.618666666666655 0 0 1 107.1573333333334 73.9306666666667A5.333333333333333 5.333333333333333 0 0 0 110.8266666666667 69.5146666666667L113.5146666666667 48.0000000000001H135.136L137.824 69.5146666666667A5.333333333333333 5.333333333333333 0 0 0 141.4826666666667 73.9306666666667A56.60800000000001 56.60800000000001 0 0 1 162.4746666666667 86.1120000000001A5.333333333333333 5.333333333333333 0 0 0 168.16 87.0933333333334L188.2026666666667 78.6453333333334L199.008 97.3546666666667L181.7066666666667 110.4640000000001A5.333333333333333 5.333333333333333 0 0 0 179.712 115.8613333333334C180.5973333333334 119.8400000000001 181.0453333333334 123.9146666666667 181.056 128.0000000000001z" />
    <glyph glyph-name="security"
      unicode="&#xEA13;"
      horiz-adv-x="256" d="M127.1466666666667 213.2373333333334A3.9786666666666677 3.9786666666666677 0 0 0 128.8533333333333 213.2373333333334L199.5946666666667 197.728A3.893333333333333 3.893333333333333 0 0 0 202.6666666666667 193.9413333333333V124.1173333333333C202.6666666666667 95.136 183.7653333333333 74.7306666666667 165.664 61.824A153.46133333333336 153.46133333333336 0 0 0 129.4826666666667 42.944L129.312 42.8906666666667L129.2693333333333 42.8693333333333H129.248L128 46.5493333333334L126.752 42.8693333333333H126.7306666666667L126.688 42.8906666666667L126.5066666666667 42.944A145.70666666666668 145.70666666666668 0 0 0 115.2853333333334 47.5093333333334A153.44 153.44 0 0 0 90.3253333333334 61.824C72.2453333333333 74.7306666666667 53.3333333333333 95.1466666666667 53.3333333333333 124.1173333333333V193.9413333333334C53.3333333333333 195.7546666666667 54.6133333333333 197.3333333333334 56.4053333333333 197.728L127.1466666666667 213.2266666666667zM128 46.5493333333334L126.752 42.8693333333333A3.9786666666666677 3.9786666666666677 0 0 1 129.248 42.8693333333333L128 46.5493333333334zM128 50.6666666666667A137.7493333333333 137.7493333333333 0 0 1 137.3973333333333 54.5493333333334A145.57866666666666 145.57866666666666 0 0 1 161.0773333333334 68.1173333333334C178.336 80.4266666666667 194.8053333333334 98.8053333333334 194.8053333333334 124.1173333333334V190.8266666666667L128 205.4826666666667L61.1946666666667 190.8266666666667V124.1173333333334C61.1946666666667 98.8053333333334 77.664 80.4266666666667 94.9333333333333 68.1173333333334A145.54666666666665 145.54666666666665 0 0 1 128 50.6666666666667zM169.3653333333333 169.7066666666667A4.2026666666666666 4.2026666666666666 0 0 0 169.7706666666667 164.064L124.9706666666667 108.064A3.6373333333333338 3.6373333333333338 0 0 0 122.272 106.6773333333334A3.605333333333334 3.605333333333334 0 0 0 119.4986666666667 107.84L97.0986666666667 131.84A4.2026666666666666 4.2026666666666666 0 0 0 97.0986666666667 137.4933333333334A3.5626666666666664 3.5626666666666664 0 0 0 102.368 137.4933333333334L121.92 116.5546666666667L164.096 169.2693333333334A3.5626666666666664 3.5626666666666664 0 0 0 169.3653333333333 169.696z" />
    <glyph glyph-name="search"
      unicode="&#xEA14;"
      horiz-adv-x="256" d="M175.424 80.576A5.333333333333333 5.333333333333333 0 0 0 182.9653333333334 80.576L217.0986666666667 46.4426666666667A5.333333333333333 5.333333333333333 0 0 0 209.5573333333333 38.9013333333333L175.424 73.0346666666667A5.333333333333333 5.333333333333333 0 0 0 175.424 80.576zM110.9333333333333 208A62.93333333333334 62.93333333333334 0 1 1 110.9333333333333 82.1333333333333A62.93333333333334 62.93333333333334 0 0 1 110.9333333333333 208zM37.3333333333333 145.0666666666667A73.60000000000001 73.60000000000001 0 1 0 184.5333333333333 145.0666666666667A73.60000000000001 73.60000000000001 0 0 0 37.3333333333333 145.0666666666667zM110.9333333333333 173.8666666666667A28.800000000000004 28.800000000000004 0 0 1 82.1333333333333 145.0666666666667A5.333333333333333 5.333333333333333 0 1 0 71.4666666666667 145.0666666666667A39.46666666666667 39.46666666666667 0 0 0 110.9333333333333 184.5333333333334A5.333333333333333 5.333333333333333 0 0 0 110.9333333333333 173.8666666666667z" />
    <glyph glyph-name="right-arrow"
      unicode="&#xEA15;"
      horiz-adv-x="256" d="M26.6666666666667 128A5.333333333333333 5.333333333333333 0 0 0 32 133.3333333333333H214.8586666666667A5.333333333333333 5.333333333333333 0 0 0 214.8586666666667 122.6666666666667H32A5.333333333333333 5.333333333333333 0 0 0 26.6666666666667 128zM147.0933333333333 195.776A5.333333333333333 5.333333333333333 0 0 0 154.6346666666667 195.776L218.6346666666667 131.776A5.333333333333333 5.333333333333333 0 0 0 218.6346666666667 124.224L154.6346666666667 60.224A5.333333333333333 5.333333333333333 0 0 0 147.0826666666667 67.776L207.3173333333333 128L147.0826666666667 188.224A5.333333333333333 5.333333333333333 0 0 0 147.0826666666667 195.776z" />
    <glyph glyph-name="reset"
      unicode="&#xEA16;"
      horiz-adv-x="256" d="M94.2186666666667 202.6666666666667A5.333333333333333 5.333333333333333 0 0 0 99.552 208H156.448A62.218666666666664 62.218666666666664 0 0 0 156.448 83.552H42.6666666666667A5.333333333333333 5.333333333333333 0 0 0 42.6666666666667 94.2186666666667H156.448A51.552 51.552 0 0 1 156.448 197.3333333333334H99.552A5.333333333333333 5.333333333333333 0 0 0 94.2186666666667 202.6666666666667zM87.072 133.2906666666667A5.333333333333333 5.333333333333333 0 0 0 87.072 125.7493333333334L50.208 88.8853333333333L87.072 52.0213333333333A5.333333333333333 5.333333333333333 0 1 0 79.5306666666667 44.48L38.8906666666667 85.12A5.333333333333333 5.333333333333333 0 0 0 38.8906666666667 92.6613333333334L79.5306666666667 133.3013333333333A5.333333333333333 5.333333333333333 0 0 0 87.072 133.3013333333333z" />
    <glyph glyph-name="print"
      unicode="&#xEA17;"
      horiz-adv-x="256" d="M174.5493333333333 135.7546666666667A7.754666666666665 7.754666666666665 0 1 1 174.5493333333333 151.2746666666667A7.754666666666665 7.754666666666665 0 0 1 174.5493333333333 135.7546666666667zM76.1173333333333 213.3333333333334A5.333333333333333 5.333333333333333 0 0 0 81.4506666666667 218.6666666666667H174.5493333333333A5.333333333333333 5.333333333333333 0 0 0 179.8826666666667 213.3333333333334V197.8133333333333A5.333333333333333 5.333333333333333 0 1 0 169.216 197.8133333333333V208H86.784V197.8133333333333A5.333333333333333 5.333333333333333 0 0 0 76.1173333333333 197.8133333333333V213.3333333333334zM73.7066666666667 169.216A25.695999999999998 25.695999999999998 0 0 1 48 143.5093333333334V86.784H81.4506666666667A5.333333333333333 5.333333333333333 0 0 0 81.4506666666667 76.1173333333334H42.6666666666667A5.333333333333333 5.333333333333333 0 0 0 37.3333333333333 81.4506666666667V143.5200000000001A36.373333333333335 36.373333333333335 0 0 0 73.7066666666667 179.8826666666667H182.2933333333333A36.36266666666666 36.36266666666666 0 0 0 218.6666666666667 143.5093333333334V81.4506666666667A5.333333333333333 5.333333333333333 0 0 0 213.3333333333333 76.1173333333334H174.5493333333333A5.333333333333333 5.333333333333333 0 1 0 174.5493333333333 86.784H208V143.52A25.706666666666663 25.706666666666663 0 0 1 182.2933333333333 169.216H73.7066666666667zM76.1173333333333 112.4906666666667A5.333333333333333 5.333333333333333 0 0 0 81.4506666666667 117.824H174.5493333333333A5.333333333333333 5.333333333333333 0 0 0 179.8826666666667 112.4906666666667V42.6666666666667A5.333333333333333 5.333333333333333 0 0 0 174.5493333333333 37.3333333333333H81.4506666666667A5.333333333333333 5.333333333333333 0 0 0 76.1173333333333 42.6666666666667V112.4906666666667zM86.784 107.1573333333333V48H169.216V107.1573333333333H86.784z" />
    <glyph glyph-name="positive"
      unicode="&#xEA18;"
      horiz-adv-x="256" d="M136.6186666666667 167.3813333333334C133.8773333333333 171.7546666666667 126.656 171.7546666666667 123.9253333333333 167.3813333333334L86.4746666666667 107.456A7.487999999999999 7.487999999999999 0 0 1 92.8213333333333 96H167.7226666666667A7.498666666666666 7.498666666666666 0 0 1 174.08 107.456L136.6186666666667 167.3813333333333z" />
    <glyph glyph-name="contacts"
      unicode="&#xEA19;"
      horiz-adv-x="256" d="M186.24 161.6853333333334A5.333333333333333 5.333333333333333 0 0 0 193.5466666666667 163.5093333333333L216.5013333333334 149.7493333333333C222.9013333333334 145.9093333333333 226.7946666666667 139.0186666666667 226.7946666666667 131.5733333333333V99.552A5.333333333333333 5.333333333333333 0 0 0 221.4613333333333 94.2186666666667H169.9946666666667A5.333333333333333 5.333333333333333 0 1 0 169.9946666666667 104.8853333333333H216.128V131.5733333333333A10.495999999999999 10.495999999999999 0 0 1 211.0293333333333 140.5866666666667L188.0533333333333 154.368A5.333333333333333 5.333333333333333 0 0 0 186.2186666666667 161.6853333333334zM168.64 208C158.8906666666667 208 150.5706666666667 202.0053333333334 147.1573333333333 193.4826666666667A5.333333333333333 5.333333333333333 0 0 0 137.2586666666667 197.44A33.78133333333333 33.78133333333333 0 0 0 202.4213333333333 184.8853333333333V176.7573333333334A33.78133333333333 33.78133333333333 0 0 0 168.6293333333333 142.9866666666667C163.36 142.9866666666667 158.5706666666667 144.16 154.1226666666667 146.3146666666667A5.333333333333333 5.333333333333333 0 0 0 158.7733333333334 155.9146666666667C161.8133333333333 154.432 165.0133333333334 153.6533333333333 168.64 153.6533333333333C181.3973333333333 153.6533333333333 191.744 164 191.744 176.7573333333334V184.8853333333333C191.744 197.6533333333333 181.3973333333334 208 168.6400000000001 208zM94.848 119.4453333333334A5.333333333333333 5.333333333333333 0 0 0 93.0133333333333 112.128L56.064 89.9946666666667C51.0613333333333 86.9973333333334 48 81.5893333333333 48 75.7546666666667V48H183.616V75.7546666666667C183.616 81.5786666666667 180.5546666666667 86.9866666666667 175.552 89.9946666666667L138.6026666666667 112.128A5.333333333333333 5.333333333333333 0 0 0 144.0853333333333 121.28L181.0346666666667 99.1466666666667A27.296000000000003 27.296000000000003 0 0 0 194.2826666666667 75.7546666666667V42.6666666666667A5.333333333333333 5.333333333333333 0 0 0 188.9493333333333 37.3333333333333H42.6666666666667A5.333333333333333 5.333333333333333 0 0 0 37.3333333333333 42.6666666666667V75.7546666666667C37.3333333333333 85.3333333333333 42.368 94.2186666666667 50.5813333333333 99.136L87.5306666666667 121.28A5.333333333333333 5.333333333333333 0 0 0 94.848 119.4453333333334zM115.808 199.872A35.306666666666665 35.306666666666665 0 0 1 80.5013333333333 164.5653333333334V148.32A35.306666666666665 35.306666666666665 0 0 1 151.1146666666667 148.32V164.576A35.306666666666665 35.306666666666665 0 0 1 115.808 199.8826666666667zM69.8346666666667 164.5653333333334A45.97333333333333 45.97333333333333 0 0 0 161.7813333333333 164.5653333333334V148.32A45.97333333333333 45.97333333333333 0 0 0 69.8346666666667 148.32V164.576z" />
    <glyph glyph-name="phone"
      unicode="&#xEA1A;"
      horiz-adv-x="256" d="M83.1893333333333 212.8106666666667A16.138666666666666 16.138666666666666 0 0 0 101.9946666666667 203.744L116.9066666666667 170.1546666666667A16.138666666666666 16.138666666666666 0 0 0 112.2453333333333 151.008L99.3386666666667 140.672A133.024 133.024 0 0 1 140.672 99.328L150.9973333333333 112.2453333333334L154.9226666666667 109.1093333333334L151.008 112.2560000000001A16.16 16.16 0 0 0 170.1546666666667 116.9066666666667L203.7546666666667 101.9733333333334A16.138666666666666 16.138666666666666 0 0 0 212.8213333333333 83.1786666666667L205.44 54.7840000000001A16.213333333333335 16.213333333333335 0 0 0 187.552 42.8160000000001H187.5413333333333A170.02666666666664 170.02666666666664 0 0 0 42.816 187.5413333333334V187.5626666666667A16.213333333333335 16.213333333333335 0 0 0 54.7733333333333 205.44H54.784L83.1893333333333 212.8zM158.8373333333333 105.9626666666667L145.76 89.6106666666667A5.013333333333333 5.013333333333333 0 0 0 139.296 88.416A143.05066666666667 143.05066666666667 0 0 0 88.416 139.296A5.013333333333333 5.013333333333333 0 0 0 89.6106666666667 145.76L105.9733333333333 158.848A6.101333333333333 6.101333333333333 0 0 1 107.7333333333333 166.08L92.8213333333333 199.68A6.101333333333333 6.101333333333333 0 0 1 85.7066666666667 203.0933333333333L57.3226666666667 195.7333333333334A6.197333333333333 6.197333333333333 0 0 1 52.7573333333333 188.928A159.97866666666667 159.97866666666667 0 0 1 188.928 52.768A6.165333333333333 6.165333333333333 0 0 1 195.7333333333333 57.312L203.0933333333333 85.696A6.111999999999998 6.111999999999998 0 0 1 199.68 92.8106666666667L166.08 107.7226666666667A6.122666666666667 6.122666666666667 0 0 1 158.8266666666667 105.9626666666667z" />
    <glyph glyph-name="password"
      unicode="&#xEA1B;"
      horiz-adv-x="256" d="M91.4346666666667 178.6453333333333A36.576 36.576 0 0 0 164.576 178.6453333333333V159.4453333333334A3.6586666666666665 3.6586666666666665 0 0 0 157.2586666666667 159.4453333333334V178.6453333333333A29.258666666666667 29.258666666666667 0 0 1 98.7413333333334 178.6453333333333V159.4453333333334A3.6586666666666665 3.6586666666666665 0 1 0 91.4346666666667 159.4453333333334V178.6453333333333zM78.624 142.08A7.317333333333333 7.317333333333333 0 0 1 71.3173333333333 134.7626666666667V57.9626666666667C71.3173333333333 53.92 74.592 50.6453333333334 78.624 50.6453333333334H177.376A7.317333333333333 7.317333333333333 0 0 1 184.6826666666667 57.9626666666667V134.7626666666667A7.317333333333333 7.317333333333333 0 0 1 177.376 142.08H78.6133333333333zM64 134.7626666666667C64 142.8373333333333 70.5493333333333 149.3866666666667 78.624 149.3866666666667H177.376C185.4506666666667 149.3866666666667 192 142.8373333333333 192 134.7626666666667V57.9626666666667C192 49.888 185.4506666666667 43.328 177.376 43.328H78.6133333333333A14.634666666666666 14.634666666666666 0 0 0 64 57.9626666666667V134.7626666666667zM128 91.7866666666667C130.0266666666667 91.7866666666667 131.6586666666667 90.1546666666667 131.6586666666667 88.128V71.68A3.6586666666666665 3.6586666666666665 0 0 0 124.3413333333334 71.68V88.1386666666667C124.3413333333334 90.1546666666667 125.984 91.7866666666667 128 91.7866666666667zM128 117.3866666666667A12.8 12.8 0 1 1 128 91.7866666666667A12.8 12.8 0 0 1 128 117.3866666666667zM107.8826666666667 104.5866666666667A20.11733333333333 20.11733333333333 0 1 0 148.1173333333333 104.5866666666667A20.11733333333333 20.11733333333333 0 0 0 107.8826666666667 104.5866666666667z" />
    <glyph glyph-name="open"
      unicode="&#xEA1C;"
      horiz-adv-x="256" d="M217.1093333333333 217.1093333333333A5.333333333333333 5.333333333333333 0 0 0 217.1093333333333 209.5573333333333L123.2426666666667 115.6906666666667A5.333333333333333 5.333333333333333 0 0 0 115.6906666666667 123.2426666666667L209.5573333333333 217.1093333333333A5.333333333333333 5.333333333333333 0 0 0 217.0986666666667 217.1093333333333zM139.7333333333333 213.3333333333334A5.333333333333333 5.333333333333333 0 0 0 145.0666666666667 218.6666666666667H213.3333333333333A5.333333333333333 5.333333333333333 0 0 0 218.6666666666667 213.3333333333334V145.0666666666667A5.333333333333333 5.333333333333333 0 0 0 208 145.0666666666667V208H145.0666666666667A5.333333333333333 5.333333333333333 0 0 0 139.7333333333333 213.3333333333334zM37.3333333333333 196.2666666666667A5.333333333333333 5.333333333333333 0 0 0 42.6666666666667 201.6H102.4A5.333333333333333 5.333333333333333 0 1 0 102.4 190.9333333333333H48V48H190.9333333333333V102.4A5.333333333333333 5.333333333333333 0 0 0 201.6 102.4V42.6666666666667A5.333333333333333 5.333333333333333 0 0 0 196.2666666666667 37.3333333333333H42.6666666666667A5.333333333333333 5.333333333333333 0 0 0 37.3333333333333 42.6666666666667V196.2666666666667z" />
    <glyph glyph-name="notes"
      unicode="&#xEA1D;"
      horiz-adv-x="256" d="M53.3333333333333 208.32C53.3333333333333 211.0933333333333 55.5733333333333 213.3333333333334 58.3466666666667 213.3333333333334H182.4746666666667A19.62666666666667 19.62666666666667 0 0 0 202.1013333333334 193.7066666666667V62.2933333333334A19.62666666666667 19.62666666666667 0 0 0 182.4746666666667 42.6666666666667H58.3573333333333A5.013333333333333 5.013333333333333 0 0 0 53.3333333333333 47.68V208.32zM63.3706666666667 203.296V52.6933333333334H182.4746666666667A9.578666666666667 9.578666666666667 0 0 1 192.0533333333334 62.2826666666667V193.7066666666667A9.578666666666667 9.578666666666667 0 0 1 182.4746666666667 203.296H63.3706666666667zM111.744 179.104C111.744 181.8773333333334 113.984 184.128 116.7573333333333 184.128H167.872C170.6453333333334 184.128 172.8853333333333 181.888 172.8853333333333 179.1146666666667V142.6026666666667C172.8853333333333 139.8293333333334 170.6453333333333 137.5893333333334 167.872 137.5893333333334H116.768A5.013333333333333 5.013333333333333 0 0 0 111.744 142.6026666666667V179.104zM121.7813333333333 174.0906666666667V147.6266666666667H162.848V174.08H121.7813333333334zM87.5626666666667 213.3333333333334C90.336 213.3333333333334 92.576 211.0933333333333 92.576 208.32V47.68A5.013333333333333 5.013333333333333 0 1 0 82.5386666666667 47.68V208.32C82.5386666666667 211.0933333333333 84.7786666666667 213.3333333333334 87.552 213.3333333333334zM111.744 113.3973333333333C111.744 116.1706666666667 113.984 118.4106666666667 116.7573333333333 118.4106666666667H167.872A5.013333333333333 5.013333333333333 0 0 0 167.872 108.384H116.768A5.013333333333333 5.013333333333333 0 0 0 111.744 113.3973333333333z" />
    <glyph glyph-name="negative"
      unicode="&#xEA1E;"
      horiz-adv-x="256" d="M123.808 98.0266666666667A5.5360000000000005 5.5360000000000005 0 0 1 132.3626666666667 98.0266666666667L180.4373333333333 162.1226666666667A5.344 5.344 0 0 1 176.1706666666666 170.6666666666667H80A5.333333333333333 5.333333333333333 0 0 1 75.7333333333333 162.1226666666667L123.7973333333334 98.016z" />
    <glyph glyph-name="more-actions"
      unicode="&#xEA1F;"
      horiz-adv-x="256" d="M109.3333333333333 133.3333333333334C109.3333333333333 124.2346666666667 116.9386666666667 116.8533333333334 126.336 116.8533333333334C135.7226666666667 116.8533333333334 143.3386666666667 124.2346666666667 143.3386666666667 133.3333333333334C143.3386666666667 142.4426666666667 135.7226666666667 149.824 126.336 149.824C116.9493333333333 149.824 109.3333333333333 142.4426666666667 109.3333333333333 133.3333333333334zM109.3333333333333 207.52C109.3333333333333 198.4106666666667 116.9386666666667 191.0293333333334 126.336 191.0293333333334C135.7226666666667 191.0293333333334 143.3386666666667 198.4106666666667 143.3386666666667 207.52C143.3386666666667 216.6186666666667 135.7226666666667 224 126.336 224C116.9493333333333 224 109.3333333333333 216.6186666666667 109.3333333333333 207.52zM109.3333333333333 59.1573333333333C109.3333333333333 50.048 116.9386666666667 42.6666666666667 126.336 42.6666666666667C135.7226666666667 42.6666666666667 143.3386666666667 50.048 143.3386666666667 59.1573333333333C143.3386666666667 68.256 135.7226666666667 75.6373333333333 126.336 75.6373333333333C116.9493333333333 75.6373333333333 109.3333333333333 68.256 109.3333333333333 59.1466666666667z" />
    <glyph glyph-name="monitor"
      unicode="&#xEA20;"
      horiz-adv-x="256" d="M128 94.5493333333334A5.333333333333333 5.333333333333333 0 0 0 133.3333333333334 89.216V58.176A5.333333333333333 5.333333333333333 0 1 0 122.6666666666667 58.176V89.216A5.333333333333333 5.333333333333333 0 0 0 128 94.5493333333334zM76.1173333333333 58.1866666666667A5.333333333333333 5.333333333333333 0 0 0 81.4506666666667 63.52H174.5493333333333A5.333333333333333 5.333333333333333 0 1 0 174.5493333333333 52.8533333333334H81.4506666666667A5.333333333333333 5.333333333333333 0 0 0 76.1173333333333 58.1866666666667zM37.3333333333333 213.3333333333334A5.333333333333333 5.333333333333333 0 0 0 42.6666666666667 218.6666666666667H213.3333333333333A5.333333333333333 5.333333333333333 0 0 0 218.6666666666667 213.3333333333334V89.216A5.333333333333333 5.333333333333333 0 0 0 213.3333333333333 83.8826666666667H42.6666666666667A5.333333333333333 5.333333333333333 0 0 0 37.3333333333333 89.216V213.3333333333334zM48 208V94.5493333333334H208V208H48z" />
    <glyph glyph-name="meter"
      unicode="&#xEA21;"
      horiz-adv-x="256" d="M128 208A5.333333333333333 5.333333333333333 0 0 0 133.3333333333334 202.6666666666667V179.392A5.333333333333333 5.333333333333333 0 0 0 122.6666666666667 179.392V202.6666666666667A5.333333333333333 5.333333333333333 0 0 0 128 208zM192.1066666666667 181.44A5.333333333333333 5.333333333333333 0 0 0 192.1066666666667 173.8986666666667L175.6586666666667 157.4506666666667A5.333333333333333 5.333333333333333 0 1 0 168.1173333333333 164.992L184.5653333333334 181.44A5.333333333333333 5.333333333333333 0 0 0 192.1066666666667 181.44zM184.7253333333334 117.3333333333334A5.333333333333333 5.333333333333333 0 0 0 190.0586666666667 122.6666666666667H213.3333333333333A5.333333333333333 5.333333333333333 0 0 0 213.3333333333333 112H190.0586666666667A5.333333333333333 5.333333333333333 0 0 0 184.7253333333333 117.3333333333334zM85.44 159.8933333333334A5.333333333333333 5.333333333333333 0 0 0 92.9813333333333 159.8933333333334L120.8 132.0746666666667A5.333333333333333 5.333333333333333 0 1 0 113.2586666666667 124.5333333333333L85.44 152.352A5.333333333333333 5.333333333333333 0 0 0 85.44 159.8933333333333zM37.3333333333333 117.3333333333334A5.333333333333333 5.333333333333333 0 0 0 42.6666666666667 122.6666666666667H65.9413333333333A5.333333333333333 5.333333333333333 0 0 0 65.9413333333333 112H42.6666666666667A5.333333333333333 5.333333333333333 0 0 0 37.3333333333333 117.3333333333334zM128 127.5093333333334A10.176 10.176 0 1 1 128 107.1573333333334A10.176 10.176 0 0 1 128 127.52zM107.1573333333333 117.3333333333334A20.853333333333335 20.853333333333335 0 1 0 148.8533333333333 117.3333333333334A20.853333333333335 20.853333333333335 0 0 0 107.1466666666667 117.3333333333334zM37.3333333333333 117.3333333333334A90.66666666666666 90.66666666666666 0 1 0 197.9306666666667 59.6266666666667A5.333333333333333 5.333333333333333 0 0 0 193.824 57.7066666666667H62.176A5.333333333333333 5.333333333333333 0 0 0 58.0693333333333 59.6266666666667A90.31466666666667 90.31466666666667 0 0 0 37.3333333333333 117.3333333333334zM128 197.3333333333334A80 80 0 0 1 64.7466666666667 68.3733333333334H191.2533333333333A80 80 0 0 1 128 197.3333333333334z" />
    <glyph glyph-name="mail"
      unicode="&#xEA22;"
      horiz-adv-x="256" d="M43.456 201.952A5.333333333333333 5.333333333333333 0 0 0 50.9866666666667 202.3146666666667L127.4026666666667 132.8426666666667L203.8186666666667 202.304A5.333333333333333 5.333333333333333 0 0 0 210.9973333333333 194.4106666666667L130.9973333333333 121.6853333333334A5.333333333333333 5.333333333333333 0 0 0 123.8186666666667 121.6853333333334L43.8186666666667 194.432A5.333333333333333 5.333333333333333 0 0 0 43.456 201.952zM58.0693333333333 197.3333333333334A10.069333333333335 10.069333333333335 0 0 1 48 187.264V79.4026666666667C48 73.8453333333333 52.512 69.3333333333333 58.0693333333333 69.3333333333333H196.736A10.069333333333335 10.069333333333335 0 0 1 206.816 79.4026666666667V187.264A10.069333333333335 10.069333333333335 0 0 1 196.736 197.3333333333334H58.0693333333333zM37.3333333333333 187.264C37.3333333333333 198.7093333333334 46.6133333333333 208 58.0693333333333 208H196.736C208.192 208 217.4826666666667 198.72 217.4826666666667 187.264V79.4026666666667C217.4826666666667 67.9573333333333 208.2026666666667 58.6666666666667 196.736 58.6666666666667H58.0693333333333A20.735999999999997 20.735999999999997 0 0 0 37.3333333333333 79.4026666666667V187.264z" />
    <glyph glyph-name="location"
      unicode="&#xEA23;"
      horiz-adv-x="256" d="M123.9253333333333 203.296C96.896 203.296 68.704 182.9546666666667 68.704 147.1253333333334C68.704 138.944 72.0426666666667 128.8853333333333 77.568 118.0586666666667C83.04 107.3173333333334 90.3893333333333 96.32 97.8346666666667 86.3466666666667A401.0666666666667 401.0666666666667 0 0 1 123.9253333333334 55.008A401.0133333333333 401.0133333333333 0 0 1 150.0266666666667 86.3466666666667C157.4506666666667 96.3093333333334 164.8 107.3173333333334 170.272 118.0586666666667C175.7973333333333 128.896 179.136 138.944 179.136 147.1253333333334C179.136 182.9546666666667 150.944 203.296 123.9253333333333 203.296zM123.9253333333333 47.6906666666667L120.32 44.192L120.2666666666667 44.2453333333334L120.128 44.384L119.616 44.928A390.56 390.56 0 0 0 110.752 54.6346666666667A410.84800000000007 410.84800000000007 0 0 0 89.7813333333333 80.3413333333334C82.1546666666667 90.5600000000001 74.4533333333333 102.0693333333334 68.6293333333333 113.4933333333334C62.8586666666667 124.8106666666667 58.6666666666667 136.5653333333334 58.6666666666667 147.1253333333334C58.6666666666667 189.312 92.2133333333333 213.3333333333334 123.9253333333333 213.3333333333334C155.6266666666667 213.3333333333334 189.1733333333333 189.312 189.1733333333333 147.1253333333334C189.1733333333333 136.5653333333334 184.992 124.8106666666667 179.2213333333333 113.4933333333334C173.3973333333333 102.0693333333333 165.6746666666667 90.56 158.0586666666667 80.3413333333334A410.9973333333333 410.9973333333333 0 0 0 128.2346666666667 44.928L127.7013333333334 44.384L127.5733333333334 44.2453333333334L127.52 44.192L123.9253333333334 47.6906666666667zM123.9253333333333 47.6906666666667L127.5306666666667 44.192A5.034666666666667 5.034666666666667 0 0 0 120.32 44.192L123.9253333333333 47.6906666666667zM123.9253333333333 165.0453333333334C114.2933333333333 165.0453333333334 106.3573333333333 157.0986666666667 106.3573333333333 147.1253333333334C106.3573333333333 137.152 114.2933333333333 129.1946666666667 123.9253333333333 129.1946666666667C133.5466666666667 129.1946666666667 141.4933333333334 137.1413333333334 141.4933333333334 147.1146666666667C141.4933333333334 157.0986666666667 133.5466666666667 165.0453333333334 123.9253333333334 165.0453333333334zM96.3093333333333 147.1253333333334C96.3093333333333 162.4853333333334 108.5973333333333 175.0933333333333 123.9253333333333 175.0933333333333C139.2426666666667 175.0933333333333 151.5306666666667 162.496 151.5306666666667 147.1253333333334C151.5306666666667 131.7546666666667 139.2426666666667 119.1573333333334 123.9253333333333 119.1573333333334C108.5973333333333 119.1573333333334 96.3093333333333 131.744 96.3093333333333 147.1253333333334z" />
    <glyph glyph-name="left-arrow"
      unicode="&#xEA24;"
      horiz-adv-x="256" d="M37.3333333333333 129.0666666666667A5.333333333333333 5.333333333333333 0 0 0 42.6666666666667 134.4H213.3333333333333A5.333333333333333 5.333333333333333 0 1 0 213.3333333333333 123.7333333333333H42.6666666666667A5.333333333333333 5.333333333333333 0 0 0 37.3333333333333 129.0666666666667zM106.176 192.576A5.333333333333333 5.333333333333333 0 0 0 106.176 185.024L50.208 129.0666666666667L106.176 73.1093333333333A5.333333333333333 5.333333333333333 0 0 0 98.624 65.568L38.8906666666667 125.3013333333333A5.333333333333333 5.333333333333333 0 0 0 38.8906666666667 132.8426666666666L98.624 192.576A5.333333333333333 5.333333333333333 0 0 0 106.176 192.576z" />
    <glyph glyph-name="last-page"
      unicode="&#xEA25;"
      horiz-adv-x="256" d="M52.128 218.1013333333334A5.333333333333333 5.333333333333333 0 0 0 57.7173333333333 217.6L171.4986666666667 132.2666666666667A5.333333333333333 5.333333333333333 0 0 0 171.4986666666667 123.7333333333334L57.7173333333333 38.4A5.333333333333333 5.333333333333333 0 0 0 49.184 42.6666666666667V213.3333333333334A5.333333333333333 5.333333333333333 0 0 0 52.128 218.1013333333334zM59.8506666666667 202.6666666666667V53.3333333333334L159.4026666666667 128L59.8506666666667 202.6666666666667zM206.2186666666667 218.6666666666667A5.333333333333333 5.333333333333333 0 0 0 211.552 213.3333333333334V42.6666666666667A5.333333333333333 5.333333333333333 0 0 0 200.8853333333333 42.6666666666667V213.3333333333334A5.333333333333333 5.333333333333333 0 0 0 206.2186666666667 218.6666666666667z" />
    <glyph glyph-name="institution"
      unicode="&#xEA26;"
      horiz-adv-x="256" d="M125.44 218.016A5.333333333333333 5.333333333333333 0 0 0 130.56 218.016L215.8933333333333 171.4666666666667A5.333333333333333 5.333333333333333 0 0 0 218.6666666666667 166.784V143.52A5.333333333333333 5.333333333333333 0 0 0 213.3333333333333 138.1866666666667H42.6666666666667A5.333333333333333 5.333333333333333 0 0 0 37.3333333333333 143.52V166.784A5.333333333333333 5.333333333333333 0 0 0 40.1066666666667 171.4773333333333L125.44 218.016zM48 163.616V148.8426666666667H208V163.6266666666667L128 207.2533333333333L48 163.6266666666667zM58.1866666666667 125.5786666666667A5.333333333333333 5.333333333333333 0 0 0 63.52 120.2453333333333V73.696A5.333333333333333 5.333333333333333 0 0 0 52.8533333333333 73.696V120.2453333333333A5.333333333333333 5.333333333333333 0 0 0 58.1866666666667 125.5786666666667zM104.7253333333333 125.5786666666667A5.333333333333333 5.333333333333333 0 0 0 110.0586666666667 120.2453333333333V73.696A5.333333333333333 5.333333333333333 0 0 0 99.392 73.696V120.2453333333333A5.333333333333333 5.333333333333333 0 0 0 104.7253333333333 125.5786666666667zM151.2746666666667 125.5786666666667A5.333333333333333 5.333333333333333 0 0 0 156.608 120.2453333333333V73.696A5.333333333333333 5.333333333333333 0 1 0 145.9413333333334 73.696V120.2453333333333A5.333333333333333 5.333333333333333 0 0 0 151.2746666666667 125.5786666666667zM197.8133333333333 125.5786666666667A5.333333333333333 5.333333333333333 0 0 0 203.1466666666667 120.2453333333333V73.696A5.333333333333333 5.333333333333333 0 1 0 192.48 73.696V120.2453333333333A5.333333333333333 5.333333333333333 0 0 0 197.8133333333334 125.5786666666667zM37.3333333333333 50.4213333333333A5.333333333333333 5.333333333333333 0 0 0 42.6666666666667 55.7546666666667H213.3333333333333A5.333333333333333 5.333333333333333 0 0 0 213.3333333333333 45.088H42.6666666666667A5.333333333333333 5.333333333333333 0 0 0 37.3333333333333 50.4213333333334zM128 166.784A7.754666666666665 7.754666666666665 0 1 1 128 182.304A7.754666666666665 7.754666666666665 0 0 1 128 166.784z" />
    <glyph glyph-name="info"
      unicode="&#xEA27;"
      horiz-adv-x="256" d="M128 203.296A75.296 75.296 0 1 1 128 52.704A75.296 75.296 0 0 1 128 203.3066666666667zM42.6666666666667 128A85.33333333333333 85.33333333333333 0 1 0 213.3333333333333 128A85.33333333333333 85.33333333333333 0 0 0 42.6666666666667 128zM128 140.32C130.7733333333334 140.32 133.0133333333333 138.08 133.0133333333333 135.3066666666667V91.4986666666667A5.013333333333333 5.013333333333333 0 0 0 122.9866666666667 91.4986666666667V135.3066666666667C122.9866666666667 138.08 125.2266666666667 140.32 128 140.32zM128 157.2053333333333A7.306666666666667 7.306666666666667 0 1 1 128 171.808A7.306666666666667 7.306666666666667 0 0 1 128 157.2053333333333z" />
    <glyph glyph-name="identity-verification"
      unicode="&#xEA28;"
      horiz-adv-x="256" d="M65.44 174.4533333333334A5.333333333333333 5.333333333333333 0 0 0 66.9013333333333 167.0506666666667A79.744 79.744 0 0 1 54.9333333333333 106.6773333333334A5.333333333333333 5.333333333333333 0 0 0 44.48 104.576A90.41066666666667 90.41066666666667 0 0 0 58.0266666666667 172.992A5.333333333333333 5.333333333333333 0 0 0 65.4293333333333 174.4533333333333zM115.4346666666667 211.392A90.31466666666667 90.31466666666667 0 0 0 174.6346666666667 203.2426666666667A5.333333333333333 5.333333333333333 0 1 0 169.7706666666667 193.7493333333334A79.648 79.648 0 0 1 117.5466666666667 200.9386666666667A79.616 79.616 0 0 1 78.4853333333333 180.7466666666667A5.333333333333333 5.333333333333333 0 0 0 71.168 188.5013333333333A90.28266666666666 90.28266666666666 0 0 0 115.4346666666667 211.392zM183.5946666666667 191.7013333333334A5.333333333333333 5.333333333333333 0 0 0 191.104 192.416A90.32533333333335 90.32533333333335 0 0 0 222.2506666666667 140.4266666666667A5.333333333333333 5.333333333333333 0 1 0 211.7973333333333 138.3146666666667A79.65866666666666 79.65866666666666 0 0 1 184.32 184.1813333333333A5.333333333333333 5.333333333333333 0 0 0 183.5946666666667 191.7013333333334zM216.0106666666667 144.608A5.333333333333333 5.333333333333333 0 0 0 222.304 140.4373333333334C223.6266666666667 133.8026666666667 224.2026666666667 127.1893333333333 224.0853333333333 120.6826666666667A5.333333333333333 5.333333333333333 0 1 0 213.4186666666667 120.896A80.416 80.416 0 0 1 211.84 138.3253333333333A5.333333333333333 5.333333333333333 0 0 0 216.0106666666667 144.608zM48.6933333333333 110.8693333333334A5.333333333333333 5.333333333333333 0 0 0 54.976 106.6986666666667C55.2106666666667 105.5466666666667 55.4666666666667 104.4053333333334 55.744 103.2853333333333A5.333333333333333 5.333333333333333 0 1 0 45.3866666666667 100.7253333333333C45.0666666666667 102.0053333333333 44.7786666666667 103.2853333333333 44.5226666666667 104.5866666666667A5.333333333333333 5.333333333333333 0 0 0 48.6826666666667 110.8693333333334zM133.3866666666667 127.84A5.333333333333333 5.333333333333333 0 0 0 138.72 122.5066666666667C138.6666666666667 90.6346666666667 135.8826666666667 59.8933333333333 115.3386666666667 36.5226666666667A5.333333333333333 5.333333333333333 0 1 0 107.3173333333333 43.5626666666667C125.024 63.7013333333333 128 90.7093333333334 128.0533333333334 122.5173333333334A5.333333333333333 5.333333333333333 0 0 0 133.3866666666667 127.84zM128.0853333333333 148.6933333333333C139.584 151.0186666666667 150.6453333333333 146.4533333333333 156.448 135.904A5.333333333333333 5.333333333333333 0 1 0 147.104 130.7626666666667C143.7013333333333 136.9386666666667 137.4506666666667 139.7013333333333 130.1866666666667 138.24C121.4826666666667 136.48 115.9253333333333 128.5333333333333 117.7066666666667 119.296L112.4693333333333 118.2933333333333L117.696 119.296C123.2106666666667 90.7733333333333 113.4613333333333 63.328 93.856 44.9813333333333A5.333333333333333 5.333333333333333 0 0 0 86.5706666666667 52.768C103.5626666666667 68.6613333333334 112.0213333333333 92.4266666666667 107.232 117.28C104.3413333333333 132.2666666666667 113.632 145.7813333333334 128.0853333333333 148.6933333333333M146.3466666666667 55.6053333333333A5.333333333333333 5.333333333333333 0 0 0 148.7893333333333 48.4586666666667C146.336 43.456 143.5626666666667 38.6666666666667 140.4906666666667 34.1866666666667A5.333333333333333 5.333333333333333 0 0 0 131.6906666666667 40.2133333333333C134.4426666666667 44.2453333333334 136.9706666666667 48.5866666666667 139.2106666666667 53.1626666666667A5.333333333333333 5.333333333333333 0 0 0 146.3573333333334 55.6053333333333zM92.1386666666667 112.32A5.333333333333333 5.333333333333333 0 0 0 97.8133333333333 107.36A58.78399999999999 58.78399999999999 0 0 0 76.3733333333333 58.0373333333333A5.333333333333333 5.333333333333333 0 0 0 69.6213333333333 66.2933333333333A48.11733333333333 48.11733333333333 0 0 1 87.1786666666667 106.656A5.333333333333333 5.333333333333333 0 0 0 92.1386666666667 112.3306666666667zM123.872 169.6C149.312 174.72 175.872 160.928 181.2266666666666 134.3893333333334A5.333333333333333 5.333333333333333 0 1 0 170.7733333333333 132.2773333333333C166.8053333333333 151.9786666666667 146.7733333333333 163.328 125.9733333333333 159.136A37.38666666666667 37.38666666666667 0 0 1 96.1493333333333 126.048A5.333333333333333 5.333333333333333 0 1 0 85.5253333333333 127.0613333333333A48.05333333333332 48.05333333333332 0 0 0 123.872 169.5893333333333zM168.5013333333333 52.8853333333333A5.333333333333333 5.333333333333333 0 0 0 171.2533333333333 45.856C170.464 44.0533333333333 169.632 42.272 168.7786666666667 40.5013333333333A5.333333333333333 5.333333333333333 0 0 0 159.1786666666667 45.1733333333333C159.9786666666667 46.8053333333333 160.7466666666667 48.4693333333333 161.4826666666667 50.1333333333333A5.333333333333333 5.333333333333333 0 0 0 168.5013333333333 52.8853333333333zM118.9013333333333 185.0986666666667A5.333333333333333 5.333333333333333 0 0 0 115.4453333333333 178.4A58.69866666666667 58.69866666666667 0 0 1 75.712 111.4666666666667C75.776 111.2853333333333 75.8186666666667 111.104 75.8613333333333 110.912A37.39733333333333 37.39733333333333 0 0 0 63.3493333333333 74.9546666666667A5.333333333333333 5.333333333333333 0 0 0 56.4586666666667 83.0933333333333A26.741333333333333 26.741333333333333 0 0 1 65.504 108.2666666666667A69.36533333333333 69.36533333333333 0 0 0 112.192 188.5653333333333A5.333333333333333 5.333333333333333 0 0 0 118.9013333333333 185.0986666666667zM201.28 136.5866666666667A69.37599999999999 69.37599999999999 0 0 1 133.376 191.872A5.333333333333333 5.333333333333333 0 1 1 133.3866666666667 181.2053333333333A58.709333333333326 58.709333333333326 0 0 0 190.8906666666667 134.1013333333334A5.333333333333333 5.333333333333333 0 0 1 195.7013333333334 129.8346666666667H195.7226666666667A5.333333333333333 5.333333333333333 0 0 1 201.2693333333334 136.5866666666667zM203.04 109.952A5.333333333333333 5.333333333333333 0 0 0 203.04 102.4106666666667L172.0106666666667 71.3706666666667A5.333333333333333 5.333333333333333 0 0 0 164.4693333333333 71.3706666666667L148.96 86.8906666666667A5.333333333333333 5.333333333333333 0 1 0 156.5013333333333 94.432L168.2346666666667 82.6986666666667L195.4986666666667 109.952A5.333333333333333 5.333333333333333 0 0 0 203.04 109.952zM176 128A37.33333333333334 37.33333333333334 0 1 1 176 53.3333333333333A37.33333333333334 37.33333333333334 0 0 1 176 128zM128 90.6666666666667A48 48 0 1 0 224 90.6666666666667A48 48 0 0 0 128 90.6666666666667z" />
    <glyph glyph-name="home"
      unicode="&#xEA29;"
      horiz-adv-x="256" d="M107.1466666666667 96.96A5.333333333333333 5.333333333333333 0 0 0 112.48 102.2933333333334H143.52A5.333333333333333 5.333333333333333 0 0 0 148.8533333333333 96.96V50.4213333333333A5.333333333333333 5.333333333333333 0 1 0 138.1866666666667 50.4213333333333V91.6373333333334H117.8133333333333V50.4213333333333A5.333333333333333 5.333333333333333 0 1 0 107.1466666666667 50.4213333333333V96.9706666666667zM124.6186666666667 217.4613333333333A5.333333333333333 5.333333333333333 0 0 0 131.3813333333333 217.4613333333333L216.7146666666666 147.648A5.333333333333333 5.333333333333333 0 1 0 209.952 139.392L128 206.4426666666667L46.048 139.392A5.333333333333333 5.333333333333333 0 1 0 39.2853333333333 147.648L124.6186666666667 217.4613333333334zM65.9413333333333 203.1466666666667A5.333333333333333 5.333333333333333 0 0 0 71.2746666666667 197.8133333333333V162.56A5.333333333333333 5.333333333333333 0 1 0 60.608 162.56V197.8133333333333A5.333333333333333 5.333333333333333 0 0 0 65.9413333333333 203.1466666666667zM65.9413333333333 133.3333333333334A5.333333333333333 5.333333333333333 0 0 0 71.2746666666667 128V55.7546666666667H184.7253333333333V128A5.333333333333333 5.333333333333333 0 0 0 195.392 128V50.4213333333333A5.333333333333333 5.333333333333333 0 0 0 190.0586666666666 45.088H65.9413333333333A5.333333333333333 5.333333333333333 0 0 0 60.608 50.4213333333333V128A5.333333333333333 5.333333333333333 0 0 0 65.9413333333333 133.3333333333333zM135.7546666666667 143.52H120.2453333333333V128H135.7546666666667V143.52zM114.912 143.52A5.333333333333333 5.333333333333333 0 0 0 120.2453333333333 148.8533333333334H135.7546666666667A5.333333333333333 5.333333333333333 0 0 0 141.088 143.52V128A5.333333333333333 5.333333333333333 0 0 0 135.7546666666667 122.6666666666667H120.2453333333333A5.333333333333333 5.333333333333333 0 0 0 114.912 128V143.52zM125.5786666666667 138.1866666666667V133.3333333333334H130.4213333333333V138.1866666666667H125.5786666666667z" />
    <glyph glyph-name="holdings"
      unicode="&#xEA2A;"
      horiz-adv-x="256" d="M91.6266666666667 213.3333333333334A5.333333333333333 5.333333333333333 0 0 0 96.96 218.6666666666667H159.04A5.333333333333333 5.333333333333333 0 0 0 164.3733333333333 213.3333333333334V182.2933333333334A5.333333333333333 5.333333333333333 0 1 0 153.7066666666667 182.2933333333334V208H102.2933333333333V182.2933333333334A5.333333333333333 5.333333333333333 0 1 0 91.6266666666667 182.2933333333334V213.3333333333334zM37.3333333333333 182.2933333333334A5.333333333333333 5.333333333333333 0 0 0 42.6666666666667 187.6266666666667H213.3333333333333A5.333333333333333 5.333333333333333 0 0 0 218.6666666666667 182.2933333333334V104.7253333333333A5.333333333333333 5.333333333333333 0 0 0 213.3333333333333 99.392H151.2746666666667A5.333333333333333 5.333333333333333 0 0 0 151.2746666666667 110.0586666666667H208V176.9706666666667H48V110.0586666666667H104.7253333333333A5.333333333333333 5.333333333333333 0 1 0 104.7253333333333 99.392H42.6666666666667A5.333333333333333 5.333333333333333 0 0 0 37.3333333333333 104.7253333333334V182.304zM50.4213333333333 86.784A5.333333333333333 5.333333333333333 0 0 0 55.7546666666667 81.4506666666667V48H200.2453333333333V81.4506666666667A5.333333333333333 5.333333333333333 0 1 0 210.912 81.4506666666667V42.6666666666667A5.333333333333333 5.333333333333333 0 0 0 205.5786666666666 37.3333333333333H50.4213333333333A5.333333333333333 5.333333333333333 0 0 0 45.088 42.6666666666667V81.4506666666667A5.333333333333333 5.333333333333333 0 0 0 50.4213333333333 86.784zM99.392 120.2453333333334A5.333333333333333 5.333333333333333 0 0 0 104.7253333333333 125.5786666666667H151.2746666666667A5.333333333333333 5.333333333333333 0 0 0 156.608 120.2453333333334V89.2053333333334A5.333333333333333 5.333333333333333 0 0 0 151.2746666666667 83.872H104.7253333333333A5.333333333333333 5.333333333333333 0 0 0 99.392 89.2053333333334V120.2453333333334zM110.0586666666667 114.912V94.5386666666667H145.9413333333333V114.912H110.0586666666667z" />
    <glyph glyph-name="history"
      unicode="&#xEA2B;"
      horiz-adv-x="256" d="M134.784 174.0906666666667A5.333333333333333 5.333333333333333 0 0 0 140.1173333333333 168.7573333333334V133.3653333333334H175.52A5.333333333333333 5.333333333333333 0 1 0 175.52 122.6986666666667H134.784A5.333333333333333 5.333333333333333 0 0 0 129.4506666666667 128.032V168.7573333333334A5.333333333333333 5.333333333333333 0 0 0 134.784 174.0906666666667zM59.008 114.3786666666667A5.333333333333333 5.333333333333333 0 0 0 54.7413333333333 117.0666666666667L34.9546666666667 151.9466666666667A5.333333333333333 5.333333333333333 0 1 0 44.2346666666667 157.216L60.064 129.3013333333333L79.4133333333333 154.336A5.333333333333333 5.333333333333333 0 1 0 87.8613333333333 147.808L63.6053333333333 116.4373333333333A5.333333333333333 5.333333333333333 0 0 0 59.008 114.3786666666667zM125.2586666666667 207.4346666666667A80 80 0 1 0 63.7866666666667 91.1466666666667A5.333333333333333 5.333333333333333 0 1 0 73.248 96.0533333333333A69.33333333333334 69.33333333333334 0 1 1 65.4613333333333 128.032A5.333333333333333 5.333333333333333 0 1 0 54.7946666666667 128.032A80 80 0 0 0 125.2586666666667 207.4346666666667z" />
    <glyph glyph-name="hide"
      unicode="&#xEA2C;"
      horiz-adv-x="256" d="M49.92 137.024A10.677333333333332 10.677333333333332 0 0 1 49.92 124.8C55.8613333333333 116.3946666666667 66.08 103.6266666666667 79.5733333333333 93.0133333333334C93.0986666666667 82.368 109.5253333333333 74.1866666666667 128 74.1866666666667C146.4746666666667 74.1866666666667 162.9013333333333 82.368 176.4266666666667 93.0026666666667C189.92 103.6266666666667 200.1386666666666 116.3946666666667 206.08 124.8000000000001A10.666666666666666 10.666666666666666 0 0 1 206.08 137.0240000000001C200.1386666666666 145.4293333333334 189.92 158.1973333333334 176.4266666666667 168.8106666666667C162.9013333333333 179.4560000000001 146.4746666666667 187.6373333333334 128 187.6373333333334C109.5253333333333 187.6373333333334 93.0986666666667 179.4560000000001 79.5733333333333 168.8213333333334C66.08 158.1973333333334 55.8613333333333 145.4293333333334 49.92 137.0240000000001zM72.9813333333333 177.2053333333333C87.5946666666667 188.6933333333333 106.2826666666667 198.2933333333334 128 198.2933333333334C149.7173333333333 198.2933333333334 168.4053333333333 188.6826666666667 183.0186666666667 177.1946666666667C197.632 165.696 208.5333333333333 152.0213333333334 214.8053333333333 143.1573333333334V143.136A21.333333333333332 21.333333333333332 0 0 0 214.8053333333333 118.6666666666667V118.6453333333334C208.5333333333333 109.7813333333334 197.632 96.1066666666667 183.0186666666667 84.6186666666667C168.4053333333333 73.12 149.7173333333333 63.4986666666667 128 63.4986666666667C106.2826666666667 63.4986666666667 87.5946666666667 73.12 72.9813333333333 84.6186666666667C58.368 96.1066666666667 47.4666666666667 109.7813333333334 41.1946666666667 118.6453333333334V118.6666666666667A21.333333333333332 21.333333333333332 0 0 0 41.1946666666667 143.136V143.1573333333334C47.4666666666667 152.0213333333334 58.368 165.696 72.9813333333333 177.184zM128 156.608A25.706666666666663 25.706666666666663 0 1 1 128 105.216A25.706666666666663 25.706666666666663 0 0 1 128 156.608zM91.6266666666667 130.9013333333334A36.373333333333335 36.373333333333335 0 1 0 164.3626666666667 130.912A36.373333333333335 36.373333333333335 0 0 0 91.6373333333333 130.912zM209.344 212.2666666666667A5.333333333333333 5.333333333333333 0 0 0 209.344 204.7146666666667L54.1866666666667 49.5573333333334A5.333333333333333 5.333333333333333 0 0 0 46.6453333333333 57.1093333333334L201.8133333333333 212.256A5.333333333333333 5.333333333333333 0 0 0 209.3546666666667 212.256z" />
    <glyph glyph-name="help"
      unicode="&#xEA2D;"
      horiz-adv-x="256" d="M128 213.3333333333334C80.9493333333333 213.3333333333334 42.6666666666667 175.0506666666667 42.6666666666667 128S80.9493333333333 42.6666666666667 128 42.6666666666667S213.3333333333333 80.9493333333334 213.3333333333333 128S175.0506666666667 213.3333333333334 128 213.3333333333334zM124.448 78.2186666666667A10.666666666666666 10.666666666666666 0 1 0 124.448 99.5626666666667A10.666666666666666 10.666666666666666 0 0 0 124.448 78.2293333333333zM155.104 141.3226666666667C152.9066666666667 137.8026666666667 148.7253333333333 133.8453333333334 142.5706666666667 129.4506666666667C132.608 122.0906666666667 132.8746666666667 120.448 132.8746666666667 113.7706666666667H115.4133333333333C115.4133333333333 118.9973333333333 115.3066666666667 122.9973333333333 118.1226666666667 127.8613333333333C119.9146666666667 130.9866666666667 123.2213333333333 134.304 128.0106666666667 137.824C133.7706666666667 141.9306666666667 139.3493333333333 145.888 139.3493333333333 152.7893333333333C139.3493333333333 159.2533333333333 133.824 161.5573333333333 127.36 161.5573333333333C120.768 161.5573333333333 113.248 159.4026666666667 104.8106666666666 155.0933333333333L97.6 169.5253333333334C112.9386666666667 178.1226666666667 137.1413333333333 182.016 150.3786666666667 171.2426666666667C160.0853333333334 163.328 160.1493333333334 149.408 155.0933333333333 141.3226666666667z" />
    <glyph glyph-name="full-screen"
      unicode="&#xEA2E;"
      horiz-adv-x="256" d="M106.176 106.176A5.333333333333333 5.333333333333333 0 0 0 106.176 98.624L46.4426666666667 38.8906666666667A5.333333333333333 5.333333333333333 0 1 0 38.8906666666667 46.4426666666667L98.624 106.176A5.333333333333333 5.333333333333333 0 0 0 106.176 106.176zM217.1093333333333 217.1093333333333A5.333333333333333 5.333333333333333 0 0 0 217.1093333333333 209.5573333333333L157.376 149.824A5.333333333333333 5.333333333333333 0 0 0 149.8346666666667 157.376L209.568 217.1093333333333A5.333333333333333 5.333333333333333 0 0 0 217.1093333333333 217.1093333333333zM149.824 106.176A5.333333333333333 5.333333333333333 0 0 0 157.376 106.176L217.1093333333333 46.4426666666667A5.333333333333333 5.333333333333333 0 0 0 209.568 38.9013333333334L149.8346666666666 98.6346666666667A5.333333333333333 5.333333333333333 0 0 0 149.8346666666666 106.176zM38.8906666666667 217.1093333333333A5.333333333333333 5.333333333333333 0 0 0 46.4426666666667 217.1093333333333L106.176 157.376A5.333333333333333 5.333333333333333 0 0 0 98.624 149.824L38.8906666666667 209.5573333333333A5.333333333333333 5.333333333333333 0 0 0 38.8906666666667 217.1093333333333zM156.8 213.3333333333334A5.333333333333333 5.333333333333333 0 0 0 162.1333333333333 218.6666666666667H213.3333333333333A5.333333333333333 5.333333333333333 0 0 0 218.6666666666667 213.3333333333334V162.1333333333333A5.333333333333333 5.333333333333333 0 0 0 208 162.1333333333333V208H162.1333333333333A5.333333333333333 5.333333333333333 0 0 0 156.8 213.3333333333334zM42.6666666666667 99.2A5.333333333333333 5.333333333333333 0 0 0 48 93.8666666666667V48H93.8666666666667A5.333333333333333 5.333333333333333 0 0 0 93.8666666666667 37.3333333333333H42.6666666666667A5.333333333333333 5.333333333333333 0 0 0 37.3333333333333 42.6666666666667V93.8666666666667A5.333333333333333 5.333333333333333 0 0 0 42.6666666666667 99.2zM37.3333333333333 213.3333333333334A5.333333333333333 5.333333333333333 0 0 0 42.6666666666667 218.6666666666667H93.8666666666667A5.333333333333333 5.333333333333333 0 0 0 93.8666666666667 208H48V162.1333333333334A5.333333333333333 5.333333333333333 0 0 0 37.3333333333333 162.1333333333334V213.3333333333334zM213.3333333333333 99.2A5.333333333333333 5.333333333333333 0 0 0 218.6666666666667 93.8666666666667V42.6666666666667A5.333333333333333 5.333333333333333 0 0 0 213.3333333333333 37.3333333333333H162.1333333333333A5.333333333333333 5.333333333333333 0 1 0 162.1333333333333 48H208V93.8666666666667A5.333333333333333 5.333333333333333 0 0 0 213.3333333333334 99.2z" />
    <glyph glyph-name="folder"
      unicode="&#xEA2F;"
      horiz-adv-x="256" d="M37.3333333333333 148.8426666666667A5.333333333333333 5.333333333333333 0 0 0 42.6666666666667 154.176H213.3333333333333A5.333333333333333 5.333333333333333 0 0 0 213.3333333333333 143.5093333333333H42.6666666666667A5.333333333333333 5.333333333333333 0 0 0 37.3333333333333 148.8426666666667zM37.3333333333333 203.1466666666667A5.333333333333333 5.333333333333333 0 0 0 42.6666666666667 208.48H112.4906666666667A5.333333333333333 5.333333333333333 0 0 0 117.824 203.1466666666667V185.216H213.3333333333333A5.333333333333333 5.333333333333333 0 0 0 218.6666666666667 179.8826666666667V63.5093333333334A20.842666666666666 20.842666666666666 0 0 0 197.824 42.6666666666667H58.1866666666667A20.842666666666666 20.842666666666666 0 0 0 37.3333333333333 63.5093333333334V203.1466666666667zM48 197.8133333333333V63.52A10.176 10.176 0 0 1 58.1866666666667 53.3333333333333H197.8133333333333A10.186666666666667 10.186666666666667 0 0 1 208 63.5093333333333V174.5493333333333H112.4906666666667A5.333333333333333 5.333333333333333 0 0 0 107.1573333333333 179.8826666666667V197.8133333333333H48z" />
    <glyph glyph-name="first-page"
      unicode="&#xEA30;"
      horiz-adv-x="256" d="M207.424 218.1013333333334A5.333333333333333 5.333333333333333 0 0 0 210.368 213.3333333333334V42.6666666666667A5.333333333333333 5.333333333333333 0 0 0 201.8346666666667 38.4L88.064 123.7333333333334A5.333333333333333 5.333333333333333 0 0 0 88.064 132.2666666666667L201.8346666666667 217.6A5.333333333333333 5.333333333333333 0 0 0 207.424 218.1013333333334zM100.1493333333333 128L199.7013333333333 53.3333333333333V202.6666666666667L100.16 128zM53.3333333333333 218.6666666666667A5.333333333333333 5.333333333333333 0 0 0 58.6666666666667 213.3333333333334V42.6666666666667A5.333333333333333 5.333333333333333 0 0 0 48 42.6666666666667V213.3333333333334A5.333333333333333 5.333333333333333 0 0 0 53.3333333333333 218.6666666666667z" />
    <glyph glyph-name="filter"
      unicode="&#xEA31;"
      horiz-adv-x="256" d="M43.264 210.6773333333333A5.013333333333333 5.013333333333333 0 0 0 47.68 213.3333333333334H208.2986666666666A5.013333333333333 5.013333333333333 0 0 0 212.48 205.5253333333333L149.0773333333333 110.4213333333333V47.6906666666667C149.0773333333333 44.9173333333333 146.8266666666666 42.6666666666667 144.0533333333333 42.6666666666667H111.9253333333333A5.013333333333333 5.013333333333333 0 0 0 106.912 47.68V110.4213333333333L43.5093333333333 205.5253333333333A5.013333333333333 5.013333333333333 0 0 0 43.264 210.6773333333333zM57.0666666666667 203.296L116.1173333333333 114.72A5.023999999999999 5.023999999999999 0 0 0 116.96 111.9466666666667V52.704H139.04V111.936C139.04 112.928 139.3386666666667 113.8986666666667 139.8933333333333 114.72L198.9333333333333 203.3066666666667H57.0666666666667z" />
    <glyph glyph-name="files"
      unicode="&#xEA32;"
      horiz-adv-x="256" d="M48 182.592A5.333333333333333 5.333333333333333 0 0 0 53.3333333333333 187.9253333333334H176.288A5.333333333333333 5.333333333333333 0 0 0 181.6213333333333 182.592V44.2666666666667A5.333333333333333 5.333333333333333 0 0 0 176.288 38.9333333333333H53.3333333333333A5.333333333333333 5.333333333333333 0 0 0 48 44.2666666666667V182.592zM58.6666666666667 177.2586666666667V49.6H170.9546666666667V177.2586666666667H58.6666666666667zM71.0506666666667 213.3333333333334A5.333333333333333 5.333333333333333 0 0 0 76.384 218.6666666666667H207.04A5.333333333333333 5.333333333333333 0 0 0 212.3733333333333 213.3333333333334V59.6266666666667A5.333333333333333 5.333333333333333 0 0 0 201.7066666666667 59.6266666666667V208H76.384A5.333333333333333 5.333333333333333 0 0 0 71.0506666666667 213.3333333333334zM78.7413333333333 144.1706666666667A5.333333333333333 5.333333333333333 0 0 0 84.0746666666667 149.504H145.5466666666667A5.333333333333333 5.333333333333333 0 1 0 145.5466666666667 138.8373333333333H84.0746666666667A5.333333333333333 5.333333333333333 0 0 0 78.7413333333333 144.1706666666667zM78.7413333333333 113.4293333333334A5.333333333333333 5.333333333333333 0 0 0 84.0746666666667 118.7626666666667H145.5466666666667A5.333333333333333 5.333333333333333 0 0 0 145.5466666666667 108.096H84.0746666666667A5.333333333333333 5.333333333333333 0 0 0 78.7413333333333 113.4293333333334zM78.7413333333333 82.688A5.333333333333333 5.333333333333333 0 0 0 84.0746666666667 88.0213333333333H114.816A5.333333333333333 5.333333333333333 0 1 0 114.816 77.3546666666667H84.0746666666667A5.333333333333333 5.333333333333333 0 0 0 78.7413333333333 82.688z" />
    <glyph glyph-name="favorite-outline"
      unicode="&#xEA33;"
      horiz-adv-x="256" d="M132.16 213.5786666666667A5.333333333333333 5.333333333333333 0 0 0 136.9386666666667 210.6026666666667L161.7066666666667 160.4266666666667L217.088 152.3733333333333A5.333333333333333 5.333333333333333 0 0 0 220.0426666666666 143.2746666666667L179.968 104.2133333333333L189.4293333333333 49.0453333333334A5.333333333333333 5.333333333333333 0 0 0 181.6853333333333 43.4133333333334L132.16 69.4506666666667L82.624 43.424A5.333333333333333 5.333333333333333 0 0 0 74.8906666666666 49.0346666666667L84.352 104.2026666666667L44.2773333333333 143.2746666666667A5.333333333333333 5.333333333333333 0 0 0 47.232 152.3733333333334L102.6133333333333 160.4266666666667L127.3813333333333 210.6026666666667A5.333333333333333 5.333333333333333 0 0 0 132.16 213.5786666666667zM132.16 196.192L110.9333333333333 153.1946666666667A5.333333333333333 5.333333333333333 0 0 0 106.9226666666667 150.272L59.456 143.3706666666667L93.8026666666667 109.888A5.333333333333333 5.333333333333333 0 0 0 95.3386666666667 105.1733333333334L87.232 57.888L129.6853333333334 80.2026666666667A5.333333333333333 5.333333333333333 0 0 0 134.6453333333334 80.2026666666667L177.0986666666667 57.888L168.9920000000001 105.1733333333334A5.333333333333333 5.333333333333333 0 0 0 170.5173333333334 109.888L204.864 143.3813333333334L157.3973333333334 150.272A5.333333333333333 5.333333333333333 0 0 0 153.3866666666667 153.1946666666667L132.16 196.192z" />
    <glyph glyph-name="export"
      unicode="&#xEA34;"
      horiz-adv-x="256" d="M217.1093333333333 217.1093333333333A5.333333333333333 5.333333333333333 0 0 0 217.1093333333333 209.5573333333333L123.2426666666667 115.6906666666667A5.333333333333333 5.333333333333333 0 0 0 115.6906666666667 123.2426666666667L209.5573333333333 217.1093333333333A5.333333333333333 5.333333333333333 0 0 0 217.0986666666667 217.1093333333333zM139.7333333333333 213.3333333333334A5.333333333333333 5.333333333333333 0 0 0 145.0666666666667 218.6666666666667H213.3333333333333A5.333333333333333 5.333333333333333 0 0 0 218.6666666666667 213.3333333333334V145.0666666666667A5.333333333333333 5.333333333333333 0 0 0 208 145.0666666666667V208H145.0666666666667A5.333333333333333 5.333333333333333 0 0 0 139.7333333333333 213.3333333333334zM42.6666666666667 218.6666666666667A5.333333333333333 5.333333333333333 0 0 0 48 213.3333333333334V48H213.3333333333333A5.333333333333333 5.333333333333333 0 0 0 213.3333333333333 37.3333333333334H42.6666666666667A5.333333333333333 5.333333333333333 0 0 0 37.3333333333333 42.6666666666667V213.3333333333334A5.333333333333333 5.333333333333333 0 0 0 42.6666666666667 218.6666666666667z" />
    <glyph glyph-name="error"
      unicode="&#xEA35;"
      horiz-adv-x="256" d="M160.7466666666667 160.7466666666667A5.013333333333333 5.013333333333333 0 0 0 160.7466666666667 153.6533333333333L102.3573333333333 95.2533333333333A5.013333333333333 5.013333333333333 0 1 0 95.2533333333333 102.3573333333333L153.664 160.768A5.013333333333333 5.013333333333333 0 0 0 160.768 160.768zM95.2533333333333 160.7466666666667A5.013333333333333 5.013333333333333 0 0 0 102.3466666666667 160.7466666666667L160.7573333333333 102.3466666666667A5.013333333333333 5.013333333333333 0 1 0 153.6533333333333 95.2426666666667L95.2533333333333 153.6533333333333A5.013333333333333 5.013333333333333 0 0 0 95.2533333333333 160.7573333333334zM128 203.296A75.296 75.296 0 1 1 128 52.704A75.296 75.296 0 0 1 128 203.3066666666667zM42.6666666666667 128A85.33333333333333 85.33333333333333 0 1 0 213.3333333333333 128A85.33333333333333 85.33333333333333 0 0 0 42.6666666666667 128z" />
    <glyph glyph-name="elligible-securities"
      unicode="&#xEA36;"
      horiz-adv-x="256" d="M48 213.3333333333334A5.333333333333333 5.333333333333333 0 0 0 53.3333333333333 218.6666666666667H172.4373333333333A5.333333333333333 5.333333333333333 0 0 0 177.7706666666667 213.3333333333334V170.6666666666667A5.333333333333333 5.333333333333333 0 0 0 167.104 170.6666666666667V208H58.6666666666667V73.0986666666667H112.8853333333333A5.333333333333333 5.333333333333333 0 1 0 112.8853333333333 62.432H53.3333333333333A5.333333333333333 5.333333333333333 0 0 0 48 67.7653333333334V213.3333333333334zM74.464 173.632A5.333333333333333 5.333333333333333 0 0 0 79.7973333333333 178.9653333333333H118.592A5.333333333333333 5.333333333333333 0 0 0 118.592 168.2986666666667H79.7866666666667A5.333333333333333 5.333333333333333 0 0 0 74.4533333333333 173.632zM74.464 140.5546666666667A5.333333333333333 5.333333333333333 0 0 0 79.7973333333333 145.888H103.5306666666667A5.333333333333333 5.333333333333333 0 0 0 103.5306666666667 135.2213333333333H79.7866666666667A5.333333333333333 5.333333333333333 0 0 0 74.4533333333333 140.5546666666667zM74.464 107.4666666666667A5.333333333333333 5.333333333333333 0 0 0 79.7973333333333 112.8H103.5306666666667A5.333333333333333 5.333333333333333 0 0 0 103.5306666666667 102.1333333333334H79.7866666666667A5.333333333333333 5.333333333333333 0 0 0 74.4533333333333 107.4666666666667zM127.2426666666667 109.4186666666667A5.333333333333333 5.333333333333333 0 0 0 132.576 104.0853333333333V62.144L151.8613333333333 74.0906666666667A5.333333333333333 5.333333333333333 0 0 0 157.472 74.0906666666667L176.7573333333334 62.144V104.0853333333333A5.333333333333333 5.333333333333333 0 0 0 187.424 104.0853333333333V52.5653333333333A5.333333333333333 5.333333333333333 0 0 0 179.2853333333334 48.032L154.6666666666667 63.2853333333333L130.048 48.032A5.333333333333333 5.333333333333333 0 0 0 121.9093333333334 52.576V104.096A5.333333333333333 5.333333333333333 0 0 0 127.2426666666667 109.4293333333334zM154.6666666666667 166.0906666666667C136.5653333333333 166.0906666666667 121.6 150.9013333333333 121.6 131.808S136.5653333333334 97.5253333333333 154.6666666666667 97.5253333333333C172.7786666666667 97.5253333333333 187.7333333333333 112.7146666666667 187.7333333333333 131.808S172.7786666666667 166.0906666666667 154.6666666666667 166.0906666666667zM110.9333333333333 131.808C110.9333333333333 156.48 130.3573333333334 176.7573333333333 154.6666666666667 176.7573333333333S198.4 156.48 198.4 131.808C198.4 107.136 178.976 86.8586666666667 154.6666666666667 86.8586666666667S110.9333333333333 107.136 110.9333333333333 131.808z" />
    <glyph glyph-name="edit"
      unicode="&#xEA37;"
      horiz-adv-x="256" d="M140.512 179.7333333333334A5.013333333333333 5.013333333333333 0 0 0 147.616 179.7333333333334L179.7333333333334 147.616A5.013333333333333 5.013333333333333 0 1 0 172.64 140.512L140.512 172.64A5.013333333333333 5.013333333333333 0 0 0 140.512 179.7333333333334zM172.64 211.8613333333333A5.013333333333333 5.013333333333333 0 0 0 179.7333333333333 211.8613333333333L211.8613333333333 179.7333333333334A5.013333333333333 5.013333333333333 0 0 0 211.8613333333333 172.64L91.392 52.16A5.013333333333333 5.013333333333333 0 0 0 88.832 50.784L48.672 42.752A5.013333333333333 5.013333333333333 0 0 0 42.7626666666667 48.6613333333333L50.7946666666667 88.8213333333333A5.013333333333333 5.013333333333333 0 0 0 52.1706666666667 91.3813333333334L172.64 211.8613333333333zM60.3413333333333 85.3653333333334L54.08 54.08L85.3653333333333 60.3413333333334L201.2053333333333 176.1813333333333L176.192 201.216L60.3413333333333 85.376z" />
    <glyph glyph-name="dropdown-open"
      unicode="&#xEA38;"
      horiz-adv-x="256" d="M38.8906666666667 174.4426666666667A5.333333333333333 5.333333333333333 0 0 0 46.4426666666667 174.4426666666667L125.3333333333333 95.5413333333333L204.224 174.4426666666667A5.333333333333333 5.333333333333333 0 0 0 211.776 166.8906666666667L129.1093333333333 84.224A5.333333333333333 5.333333333333333 0 0 0 121.5573333333333 84.224L38.8906666666667 166.8906666666667A5.333333333333333 5.333333333333333 0 0 0 38.8906666666667 174.4426666666667z" />
    <glyph glyph-name="dropdown-closed"
      unicode="&#xEA39;"
      horiz-adv-x="256" d="M84.224 217.1093333333333A5.333333333333333 5.333333333333333 0 0 0 91.776 217.1093333333333L177.1093333333333 131.776A5.333333333333333 5.333333333333333 0 0 0 177.1093333333333 124.224L91.776 38.8906666666667A5.333333333333333 5.333333333333333 0 0 0 84.224 46.4426666666667L165.792 128L84.224 209.5573333333333A5.333333333333333 5.333333333333333 0 0 0 84.224 217.1093333333333z" />
    <glyph glyph-name="download"
      unicode="&#xEA3A;"
      horiz-adv-x="256" d="M52.8213333333333 104.384A5.333333333333333 5.333333333333333 0 0 0 58.1546666666667 99.0506666666667V58.6666666666667H199.872V99.0506666666667A5.333333333333333 5.333333333333333 0 0 0 210.5386666666667 99.0506666666667V53.3333333333333A5.333333333333333 5.333333333333333 0 0 0 205.2053333333333 48H52.8213333333333A5.333333333333333 5.333333333333333 0 0 0 47.488 53.3333333333333V99.0506666666667A5.333333333333333 5.333333333333333 0 0 0 52.8213333333333 104.384zM129.0133333333333 218.6666666666667A5.333333333333333 5.333333333333333 0 0 0 134.3466666666667 213.3333333333334V99.0506666666667A5.333333333333333 5.333333333333333 0 1 0 123.68 99.0506666666667V213.3333333333334A5.333333333333333 5.333333333333333 0 0 0 129.0133333333333 218.6666666666667zM79.5306666666667 148.5333333333334A5.333333333333333 5.333333333333333 0 0 0 87.072 148.5333333333334L129.0133333333333 106.592L170.9546666666667 148.5333333333334A5.333333333333333 5.333333333333333 0 0 0 178.496 140.992L132.7893333333333 95.2746666666667A5.333333333333333 5.333333333333333 0 0 0 125.248 95.2746666666667L79.5306666666667 140.992A5.333333333333333 5.333333333333333 0 0 0 79.5306666666667 148.5333333333334z" />
    <glyph glyph-name="complete"
      unicode="&#xEA3B;"
      horiz-adv-x="256" d="M175.36 160.7466666666667A5.013333333333333 5.013333333333333 0 0 0 175.36 153.6533333333333L116.9493333333334 95.2426666666667A5.013333333333333 5.013333333333333 0 0 0 109.8453333333334 95.2426666666667L80.64 124.448A5.013333333333333 5.013333333333333 0 1 0 87.744 131.552L113.3973333333333 105.8986666666667L168.256 160.7573333333334A5.013333333333333 5.013333333333333 0 0 0 175.36 160.7573333333334zM128 203.296A75.296 75.296 0 1 1 128 52.704A75.296 75.296 0 0 1 128 203.3066666666667zM42.6666666666667 128A85.33333333333333 85.33333333333333 0 1 0 213.3333333333333 128A85.33333333333333 85.33333333333333 0 0 0 42.6666666666667 128z" />
    <glyph glyph-name="close"
      unicode="&#xEA3C;"
      horiz-adv-x="256" d="M211.8613333333333 211.8613333333333A5.013333333333333 5.013333333333333 0 0 0 211.8613333333333 204.768L51.232 44.128A5.013333333333333 5.013333333333333 0 0 0 44.1386666666667 51.232L204.768 211.872A5.013333333333333 5.013333333333333 0 0 0 211.8613333333333 211.872zM44.1386666666667 211.8613333333333A5.013333333333333 5.013333333333333 0 0 0 51.232 211.8613333333333L211.872 51.232A5.013333333333333 5.013333333333333 0 0 0 204.768 44.1386666666667L44.128 204.768A5.013333333333333 5.013333333333333 0 0 0 44.128 211.8613333333333z" />
    <glyph glyph-name="clock"
      unicode="&#xEA3D;"
      horiz-adv-x="256" d="M128 213.3333333333334C130.7733333333334 213.3333333333334 133.0133333333333 211.0933333333333 133.0133333333333 208.32V179.0933333333333A5.013333333333333 5.013333333333333 0 0 0 122.9866666666667 179.0933333333333V208.32C122.9866666666667 211.0933333333333 125.2266666666667 213.344 128 213.344zM174.08 128C174.08 130.7733333333334 176.3413333333333 133.0133333333333 179.104 133.0133333333333H208.3093333333333A5.013333333333333 5.013333333333333 0 0 0 208.3093333333333 122.9866666666667H179.104A5.013333333333333 5.013333333333333 0 0 0 174.0906666666667 128zM128 81.92C130.7733333333334 81.92 133.0133333333333 79.6586666666667 133.0133333333333 76.896V47.6906666666667A5.013333333333333 5.013333333333333 0 0 0 122.9866666666667 47.6906666666667V76.896C122.9866666666667 79.6693333333334 125.2266666666667 81.9093333333333 128 81.9093333333333zM42.6666666666667 128C42.6666666666667 130.7733333333334 44.9066666666667 133.0133333333333 47.68 133.0133333333333H76.9066666666667A5.013333333333333 5.013333333333333 0 0 0 76.9066666666667 122.9866666666667H47.68A5.013333333333333 5.013333333333333 0 0 0 42.6666666666667 128zM128 203.296A75.296 75.296 0 1 1 128 52.704A75.296 75.296 0 0 1 128 203.3066666666667zM42.6666666666667 128A85.33333333333333 85.33333333333333 0 1 0 213.3333333333333 128A85.33333333333333 85.33333333333333 0 0 0 42.6666666666667 128zM96.0106666666667 175.9893333333333A5.013333333333333 5.013333333333333 0 0 0 102.976 174.592L130.688 133.024H157.2053333333333A5.013333333333333 5.013333333333333 0 0 0 157.2053333333333 122.976H128A5.013333333333333 5.013333333333333 0 0 0 123.8186666666667 125.216L94.624 169.024A5.013333333333333 5.013333333333333 0 0 0 96 175.9893333333333z" />
    <glyph glyph-name="client-hierarchy"
      unicode="&#xEA3E;"
      horiz-adv-x="256" d="M128 154.9226666666667C130.7733333333334 154.9226666666667 133.0133333333333 152.6826666666667 133.0133333333333 149.9093333333333V106.1013333333333A5.013333333333333 5.013333333333333 0 0 0 122.9866666666667 106.1013333333333V149.8986666666667C122.9866666666667 152.672 125.2266666666667 154.9226666666667 128 154.9226666666667zM57.2693333333333 128C57.2693333333333 130.7733333333334 59.5093333333333 133.0133333333333 62.2826666666667 133.0133333333333H193.7066666666667C196.48 133.0133333333333 198.7306666666667 130.7733333333334 198.7306666666667 128V106.1013333333333A5.013333333333333 5.013333333333333 0 0 0 188.6933333333333 106.1013333333333V122.976H67.3066666666667V106.1013333333333A5.013333333333333 5.013333333333333 0 1 0 57.2693333333333 106.1013333333333V128zM62.2933333333333 71.872A9.578666666666667 9.578666666666667 0 1 1 62.2933333333333 52.704A9.578666666666667 9.578666666666667 0 0 1 62.2933333333333 71.872zM42.6666666666667 62.2933333333334A19.62666666666667 19.62666666666667 0 1 0 81.92 62.2933333333334A19.62666666666667 19.62666666666667 0 0 0 42.6666666666667 62.2933333333334zM128 71.872A9.578666666666667 9.578666666666667 0 1 1 128 52.704A9.578666666666667 9.578666666666667 0 0 1 128 71.872zM108.3733333333333 62.2933333333334A19.62666666666667 19.62666666666667 0 1 0 147.6266666666667 62.2933333333334A19.62666666666667 19.62666666666667 0 0 0 108.3733333333333 62.2933333333334zM193.7066666666667 71.872A9.578666666666667 9.578666666666667 0 1 1 193.7066666666667 52.704A9.578666666666667 9.578666666666667 0 0 1 193.7066666666667 71.872zM174.08 62.2933333333334A19.62666666666667 19.62666666666667 0 1 0 213.3333333333333 62.2933333333334A19.62666666666667 19.62666666666667 0 0 0 174.08 62.2933333333334zM108.3733333333333 208.32C108.3733333333333 211.0933333333333 110.624 213.3333333333334 113.3973333333333 213.3333333333334H142.6026666666667C145.376 213.3333333333334 147.616 211.0933333333333 147.616 208.32V179.0933333333333C147.616 176.32 145.376 174.08 142.6026666666667 174.08H113.3973333333333A5.013333333333333 5.013333333333333 0 0 0 108.384 179.0933333333333V208.32zM118.4213333333333 203.296V184.128H137.5786666666667V203.296H118.4213333333333z" />
    <glyph glyph-name="chat"
      unicode="&#xEA3F;"
      horiz-adv-x="256" d="M37.3333333333333 202.6666666666667A5.333333333333333 5.333333333333333 0 0 0 42.6666666666667 208H213.8666666666667A5.333333333333333 5.333333333333333 0 0 0 219.2 202.6666666666667V85.9413333333334A5.333333333333333 5.333333333333333 0 0 0 213.8666666666667 80.608H137.76L84.672 42.688A5.333333333333333 5.333333333333333 0 0 0 76.2453333333333 47.0293333333333V80.608H42.6666666666667A5.333333333333333 5.333333333333333 0 0 0 37.3333333333333 85.9413333333333V202.6666666666667zM48 197.3333333333334V91.2746666666667H81.5786666666667A5.333333333333333 5.333333333333333 0 0 0 86.912 85.9413333333334V57.3973333333333L132.9493333333333 90.2826666666667A5.333333333333333 5.333333333333333 0 0 0 136.0426666666667 91.2746666666667H208.5333333333333V197.3333333333334H48z" />
    <glyph glyph-name="chart"
      unicode="&#xEA40;"
      horiz-adv-x="256" d="M138.1866666666667 213.3333333333334A5.333333333333333 5.333333333333333 0 0 0 143.52 218.6666666666667A75.14666666666666 75.14666666666666 0 0 0 218.6666666666667 143.5093333333334A5.333333333333333 5.333333333333333 0 0 0 213.3333333333334 138.176H143.52A5.333333333333333 5.333333333333333 0 0 0 138.1866666666667 143.5093333333334V213.3333333333334zM148.8533333333333 207.7866666666667V148.8426666666667H207.7866666666667A64.49066666666666 64.49066666666666 0 0 1 148.8533333333333 207.7866666666667zM37.3333333333333 112.4906666666667A75.14666666666666 75.14666666666666 0 0 0 112.4906666666667 187.6373333333334A5.333333333333333 5.333333333333333 0 0 0 117.824 182.304V117.824H182.304A5.333333333333333 5.333333333333333 0 0 0 187.6373333333333 112.4906666666667A75.14666666666666 75.14666666666666 0 0 0 112.48 37.3333333333333A75.14666666666666 75.14666666666666 0 0 0 37.3333333333333 112.4906666666667zM107.1573333333333 176.7573333333334A64.49066666666666 64.49066666666666 0 1 1 176.7466666666667 107.1573333333333H112.4906666666667A5.333333333333333 5.333333333333333 0 0 0 107.1573333333333 112.4906666666667V176.7466666666667z" />
    <glyph glyph-name="calendar"
      unicode="&#xEA41;"
      horiz-adv-x="256" d="M37.3333333333333 151.2746666666667A5.333333333333333 5.333333333333333 0 0 0 42.6666666666667 156.608H213.3333333333333A5.333333333333333 5.333333333333333 0 0 0 213.3333333333333 145.9413333333333H42.6666666666667A5.333333333333333 5.333333333333333 0 0 0 37.3333333333333 151.2746666666667zM58.1866666666667 192.48A10.186666666666667 10.186666666666667 0 0 1 48 182.304V58.176C48 52.5546666666667 52.5546666666667 48 58.1866666666667 48H197.8133333333333A10.186666666666667 10.186666666666667 0 0 1 208 58.176V182.304A10.186666666666667 10.186666666666667 0 0 1 197.824 192.48H58.1866666666667zM37.3333333333333 182.304C37.3333333333333 193.824 46.6666666666667 203.1466666666667 58.1866666666667 203.1466666666667H197.8133333333333C209.3333333333334 203.1466666666667 218.6666666666667 193.8133333333333 218.6666666666667 182.304V58.176C218.6666666666667 46.6666666666667 209.3333333333333 37.3333333333333 197.824 37.3333333333333H58.1866666666667A20.853333333333335 20.853333333333335 0 0 0 37.3333333333333 58.176V182.304zM81.4613333333333 218.6666666666667A5.333333333333333 5.333333333333333 0 0 0 86.7946666666667 213.3333333333334L86.784 182.2933333333334A5.333333333333333 5.333333333333333 0 1 0 76.1173333333333 182.304V213.344A5.333333333333333 5.333333333333333 0 0 0 81.4506666666667 218.6666666666667zM174.5493333333333 218.6666666666667A5.333333333333333 5.333333333333333 0 0 0 179.8826666666667 213.3333333333334L179.872 182.2933333333334A5.333333333333333 5.333333333333333 0 0 0 169.2053333333333 182.304V213.344A5.333333333333333 5.333333333333333 0 0 0 174.5386666666667 218.6666666666667z" />
    </font>
</defs>
</svg>
